<svg xmlns="http://www.w3.org/2000/svg" viewBox="0 0 323 323"><defs><style>.cls-1{fill:#45d9fd;}.cls-2{fill:#3ec0d6;}.cls-3{fill:#beedff;}.cls-10,.cls-11,.cls-4{stroke:#000;}.cls-10,.cls-11,.cls-14,.cls-15,.cls-16,.cls-18,.cls-4{stroke-miterlimit:10;}.cls-11,.cls-5{fill:#fff;}.cls-6{fill:#6eb1ca;}.cls-7{fill:#d3789f;}.cls-8{fill:#a2d8ec;}.cls-9{fill:#497484;}.cls-10,.cls-15,.cls-16,.cls-18{fill:none;}.cls-12,.cls-14{fill:#007fff;}.cls-13{fill:#ff0038;}.cls-14,.cls-15,.cls-16,.cls-18{stroke:#fff;}.cls-14{stroke-width:4px;}.cls-15{stroke-width:5px;}.cls-16{stroke-width:1.5px;}.cls-17{fill:#1f98fc;}.cls-18{stroke-width:0.75px;}</style></defs><title>Asset 39</title><g id="Layer_2" data-name="Layer 2"><g id="Fitness_Tech" data-name="Fitness Tech"><circle class="cls-1" cx="161.5" cy="160.5" r="159"/><path class="cls-2" d="M81.72,107.57a39.31,39.31,0,0,0,4.45-.26A53.44,53.44,0,0,0,83,123a49,49,0,0,0,2.86,18.41c.14,1.52,0,2.85-.84,3.39s-1.85.3-2.19,1.07.52,1.17.6,2.43c0,.52-.47,1.56-1.47,3.66a9.25,9.25,0,0,1-1,2.17.11.11,0,0,0,0,.08c0,.25,1.35.05,1.86.51s-.16,2.17-.84,4.62c-.58,2.1-1.46,5.23-.29,6.16.78.62,1.88-.2,2.46.44.93,1-1.14,4.1-.53,4.51.29.2.8-.49,2-.65a5.59,5.59,0,0,1,1.89.22c1.51.08,3.59-4,4.4-8.47.09-.5.16-1,.21-1.52.07.86.14,1.78.21,2.82.46,6.3.84,12.65.84,12.65s.33,10.25.19,12.18c-.54,7.44-2.08,13.79-5.87,24.28-3.16,8.76-7.36,19.63-12.81,32L66,281a174.85,174.85,0,0,0,25,15.84l2,1A149.57,149.57,0,0,0,250.5,291l-.43-.67c2.59-1.64,5.24-3.4,7.93-5.33a165,165,0,0,0,17-14c-4.06-6.43-7.38-12.25-10-17.18-4.51-8.36-16.47-30.48-20.93-51.66-1.19-5.67-3-17.44-3.17-18.41a92.66,92.66,0,0,1-1.24-10.17c-.1-1.88-.1-3.35-.06-4.6.81,2,1.8,3.33,2.64,3.32a5.39,5.39,0,0,1,1.86-.16c1.17.2,1.64.91,1.94.72.6-.39-1.33-3.53-.38-4.52.58-.62,1.64.24,2.42-.35,1.18-.89.42-4-.09-6.17-.59-2.47-1.34-4.08-.68-4.65s1.81-.2,1.84-.45a.11.11,0,0,0,0-.08,9.37,9.37,0,0,1-.88-2.2c-.91-2.13-1.37-3.19-1.32-3.71.11-1.26.94-1.68.66-2.41s-1.43-.65-2.12-1.14c-2.35-1.68,1.27-10,.87-10.21,0,0-.07,0-.13.06a59.76,59.76,0,0,0,.21-27.07l.13,0,0-.14a36.88,36.88,0,0,0,5.42.4c13.89,0,25.14-7.59,25.14-17s-11.26-17-25.14-17a34.44,34.44,0,0,0-13.27,2.56l-.43-.23a20.89,20.89,0,0,0-11.53-6.46l-.34-.07-.24,0L225.5,72l-4.4-.58q-2.27-1.77-4.69-3.39c-11.5-9.9-30.06-16.34-51-16.34-21.58,0-40.62,6.82-52,17.22a77.35,77.35,0,0,0-9,3.55c-3.36.49-6.64,1-9.82,1.53a15.87,15.87,0,0,0-2.91,2.34,37.66,37.66,0,0,0-9.87-.83c-13.89,0-25.14,7.18-25.14,16S67.83,107.57,81.72,107.57Z"/><path class="cls-3" d="M271.31,273.5c-4.06-6.43-7.38-12.25-10-17.18-4.51-8.36-16.47-30.48-20.93-51.66-1.19-5.67-3-17.44-3.17-18.41a92.66,92.66,0,0,1-1.24-10.17c-.1-1.88-.1-3.35-.06-4.6.81,2,1.8,3.33,2.64,3.32a5.39,5.39,0,0,1,1.86-.16c1.17.2,1.64.91,1.94.72.6-.39-1.33-3.53-.38-4.52.58-.62,1.64.24,2.42-.35,1.18-.89.42-4-.09-6.17-.59-2.47-1.34-4.08-.68-4.65s1.81-.2,1.84-.45a.11.11,0,0,0,0-.08,9.37,9.37,0,0,1-.88-2.2c-.91-2.13-1.37-3.19-1.32-3.71.11-1.26.94-1.68.66-2.41s-1.43-.65-2.12-1.14c-2.35-1.68,1.27-10,.87-10.21,0,0-.07,0-.13.06a59.83,59.83,0,0,0,.18-27.19,36.92,36.92,0,0,0,5.56.42c13.89,0,25.14-7.59,25.14-17s-11.26-17-25.14-17a34.44,34.44,0,0,0-13.27,2.56,85.89,85.89,0,0,0-17.3-7.29c-1.58-1.24-3.23-2.43-4.93-3.57-11.5-9.9-30.06-16.34-51-16.34-21.58,0-40.62,6.82-52,17.22a89.86,89.86,0,0,0-18.36,8.49C85.46,77.59,79.58,78,78,78c-13.89,0-25.14,7.18-25.14,16s11.26,16,25.14,16a39.31,39.31,0,0,0,4.45-.26A53.44,53.44,0,0,0,79.3,125.5a49,49,0,0,0,2.86,18.41c.14,1.52,0,2.85-.84,3.39s-1.85.3-2.19,1.07.52,1.17.6,2.43c0,.52-.47,1.56-1.47,3.66a9.25,9.25,0,0,1-1,2.17.11.11,0,0,0,0,.08c0,.25,1.35.05,1.86.51s-.16,2.17-.84,4.62c-.58,2.1-1.46,5.23-.29,6.16.78.62,1.88-.2,2.46.44.93,1-1.14,4.1-.53,4.51.29.2.8-.49,2-.65a5.59,5.59,0,0,1,1.89.22c1.51.08,3.59-4,4.4-8.47.09-.5.16-1,.21-1.52.07.86.14,1.78.21,2.82.46,6.3.84,12.65.84,12.65s.33,10.25.19,12.18c-.54,7.44-2.08,13.79-5.87,24.28-3.16,8.76-7.36,19.63-12.81,32l-8.66,37a174.82,174.82,0,0,0,66,31s41.21,8.82,82.4-4.76c1.77-.58,3.6-1.24,3.6-1.24a162.89,162.89,0,0,0,40-21A164.94,164.94,0,0,0,271.31,273.5Z"/><circle class="cls-4" cx="116.99" cy="126.54" r="6.03"/><circle class="cls-5" cx="119.26" cy="129.01" r="2.26" transform="translate(-48.53 76.91) rotate(-30)"/><circle class="cls-4" cx="203.02" cy="127.01" r="6.03" transform="translate(-9.58 16.79) rotate(-4.63)"/><circle class="cls-5" cx="200.96" cy="129.64" r="2.26" transform="translate(-2.29 255.66) rotate(-64.63)"/><path class="cls-6" d="M104.55,119c-.25-.27.93-2.17,2.76-3.45,2.23-1.55,4.95-1.85,5.09-1.49.07.18-.5.46-3.71,2.49S104.7,119.18,104.55,119Z"/><path class="cls-6" d="M213.47,119.68c.24-.28-1-2.14-2.87-3.36-2.28-1.48-5-1.69-5.14-1.32-.06.18.51.44,3.79,2.37S213.32,119.85,213.47,119.68Z"/><path class="cls-6" d="M85.64,96.13c-.86,3.88-1.3,5.83-1.39,6.62-.36,3.09-.12,4.44-1.16,5.48-.79.79-2,1-5.06.84a35.82,35.82,0,0,1-11.3-2.12,23.48,23.48,0,0,1-8-4.27c-1.9-1.63-4.18-3.59-4.1-6.2s2.24-4.24,3.47-5.21c3.29-2.59,6.64-3,12.4-3.68,14.12-1.69,16.21-2,17.08-.53C88.12,88,87.36,88.41,85.64,96.13Z"/><path class="cls-6" d="M239.68,99.18c1,3.84,1.55,5.77,1.67,6.56.49,3.08.31,4.43,1.39,5.42.83.76,2,.95,5.09.62a35.82,35.82,0,0,0,11.2-2.6,23.48,23.48,0,0,0,7.85-4.61c1.83-1.71,4-3.76,3.83-6.37s-2.42-4.14-3.69-5.06c-3.39-2.45-6.76-2.7-12.54-3.14-14.18-1.08-16.28-1.27-17.09.2C236.86,91.18,237.63,91.54,239.68,99.18Z"/><ellipse class="cls-7" cx="165.75" cy="167.35" rx="7.94" ry="8.82" transform="translate(-8.98 325.29) rotate(-87.39)"/><path class="cls-8" d="M196.12,138.6c0-8.43-16.17-15.26-36.12-15.26s-36.12,6.83-36.12,15.26c0,4.93,5.53,9.31,14.12,12.1-3.37,4.44-4.13,9.95-1.45,14,3.62,5.49,12.15,6.25,19,1.7a17.89,17.89,0,0,0,5.3-5.36,17.31,17.31,0,0,0,7.74,6.37c7.59,3.26,15.84,1,18.44-5,1.74-4.06.48-8.79-2.84-12.45C191.53,147.13,196.12,143.09,196.12,138.6Z"/><ellipse class="cls-9" cx="162.89" cy="138.06" rx="16.87" ry="10.72"/><ellipse class="cls-8" cx="168.19" cy="133.56" rx="9.37" ry="4.29"/><ellipse class="cls-5" cx="167.85" cy="133.56" rx="8.75" ry="3.18"/><path class="cls-10" d="M47.37,251.79"/><path class="cls-11" d="M282.32,214.81"/><path class="cls-12" d="M90.5,77a34.22,34.22,0,0,0-9,16,32.61,32.61,0,0,0-.72,6.29A31.76,31.76,0,0,0,82.5,110c5.35-.3,13.31-.71,23-1,7.62-.23,12.34-.21,16.79-.35,14.63-.47,23.25-1.22,43.21-1.65,12.68-.27,23.46-.43,35.62.09,7.44.32,11.24.58,14.38.91a171.39,171.39,0,0,1,27,5c-.36-3.19-1-7.67-2-13-1.85-9.43-2.83-14.24-6-18a21,21,0,0,0-13-7,435.52,435.52,0,0,0-131,2Z"/><path class="cls-13" d="M90.5,77a15.49,15.49,0,0,0-7,10c9.57-1,22.16-2.19,37-3,14.68-.8,27-1.48,43-1,9.18.27,11.79.69,51,4,10.31.87,18.7,1.56,24,2a21.67,21.67,0,0,0-6-9,21.44,21.44,0,0,0-11-5,435.52,435.52,0,0,0-131,2Z"/><path class="cls-14" d="M84.5,217a107.21,107.21,0,0,1,10,46,106.69,106.69,0,0,1-7,37,149.59,149.59,0,0,0,159-6,78,78,0,0,1-5-76l-4-14a46.69,46.69,0,0,0-8,4c-15.42,9.67-14.58,22.3-25,30-4.78,3.53-16.58,3.73-40,4-22.7.26-34.16.35-39-3-10.35-7.16-9.49-17.84-25-30a66.94,66.94,0,0,0-11-7Z"/><path class="cls-5" d="M230.38,75.6c.56.1,2.05-2.55,1.86-5.5s-2-6.21-3.83-6.12c-1.41.07-2.91,2.15-2.57,3.63s2,1.21,3.3,3C230.74,72.87,229.84,75.5,230.38,75.6Z"/><path class="cls-5" d="M74.91,122.94c.81.34.55,5.08-2.2,8.78s-7.84,6.49-10.2,4.81c-1.8-1.28-2-5.28-.32-6.93s3.66.11,6.89-1.19C73.07,126.82,74.11,122.61,74.91,122.94Z"/><path class="cls-5" d="M250.51,133.69c.71-.53,4.65,2.11,6.45,6.36s1.61,10.05-1,11.23c-2,.9-5.57-1-6.13-3.25s2-3.1,2.48-6.54C252.92,137.24,249.82,134.2,250.51,133.69Z"/><path class="cls-5" d="M75.29,136.06c-.33-.37-2.83.66-4.3,2.83s-2,5.42-.67,6.37a3,3,0,0,0,3.78-1.13c.53-1.14-.75-1.94-.66-3.92C73.56,137.77,75.62,136.42,75.29,136.06Z"/><polygon class="cls-5" points="163 257.96 153.08 240.77 172.92 240.77 163 257.96"/><path class="cls-5" d="M83.5,87a36.5,36.5,0,0,0-3,14,172.34,172.34,0,0,1,25-5c3.29-.41,5.9-.64,8.33-.84,8.09-.69,15.82-1,25.67-1.16,36.61-.7,55.17-.34,67,1a283.32,283.32,0,0,1,34,6,30.33,30.33,0,0,0-1-10,29.59,29.59,0,0,0-1-3c-5.78-.79-14.85-2-26-3a585.33,585.33,0,0,0-101-1C103.83,84.62,94.36,85.55,83.5,87Z"/><path class="cls-5" d="M235.21,76.78c-.8-.38-.29-5.1,2.65-8.66S246,62,248.29,63.83c1.73,1.37,1.73,5.38,0,6.94s-3.65-.3-6.94.83C237.25,73,236,77.15,235.21,76.78Z"/><circle class="cls-15" cx="161.5" cy="161.5" r="159"/><path class="cls-16" d="M153.37,288.69,144,283.28v-15l13.32-7.49,13.11,7.7v14.78l-9.78,6v14.78l12.9,7.91,13.11-7.7V289.11l-9.57-5.62"/><polygon class="cls-17" points="150.66 271.85 150.66 279.54 157.32 283.39 163.98 279.54 163.98 271.85 157.32 268.01 150.66 271.85"/><circle class="cls-18" cx="157.22" cy="275.47" r="1.35"/><line class="cls-18" x1="157.32" y1="277.24" x2="157.32" y2="305.34"/><polygon class="cls-17" points="180.5 300.83 180.46 293.14 173.78 289.33 167.14 293.22 167.18 300.91 173.87 304.71 180.5 300.83"/><circle class="cls-18" cx="173.93" cy="297.25" r="1.35" transform="translate(-1.66 0.97) rotate(-0.32)"/><line class="cls-18" x1="173.82" y1="295.48" x2="173.66" y2="267.36"/></g></g></svg>