<svg xmlns="http://www.w3.org/2000/svg" viewBox="0 0 328.97 323"><defs><style>.cls-1{fill:#cff09e;}.cls-2{fill:#b4ce86;}.cls-3{fill:#beedff;}.cls-10,.cls-11,.cls-4{stroke:#000;}.cls-10,.cls-11,.cls-15,.cls-4{stroke-miterlimit:10;}.cls-11,.cls-5{fill:#fff;}.cls-6{fill:#6eb1ca;}.cls-7{fill:#d3789f;}.cls-8{fill:#a2d8ec;}.cls-9{fill:#497484;}.cls-10,.cls-15,.cls-19{fill:none;}.cls-12{fill:#866340;}.cls-13{fill:#30a9de;}.cls-14{fill:#c5e99b;}.cls-15{stroke:#fff;stroke-width:5px;}.cls-16{fill:#696;}.cls-17{fill:#547a54;}.cls-18{fill:#7bb77b;}</style></defs><title>Asset 14</title><g id="Layer_2" data-name="Layer 2"><g id="Global_Health" data-name="Global Health"><circle class="cls-1" cx="164.8" cy="160.5" r="159"/><path class="cls-2" d="M252.34,204.16c-1.19-5.67-3-17.44-3.17-18.41a92.66,92.66,0,0,1-1.24-10.17c-.1-1.88-.1-3.35-.06-4.6.81,2,1.8,3.33,2.64,3.32a5.39,5.39,0,0,1,1.86-.16c1.17.2,1.64.91,1.94.72.6-.39-1.33-3.53-.38-4.52.58-.62,1.64.24,2.42-.35,1.18-.89.42-4-.09-6.17-.59-2.47-1.34-4.08-.68-4.65s1.81-.2,1.84-.45a.11.11,0,0,0,0-.08,9.37,9.37,0,0,1-.88-2.2c-.91-2.13-1.37-3.19-1.32-3.71.11-1.26.94-1.68.66-2.41s-1.43-.65-2.12-1.14c-2.35-1.68,1.27-10,.87-10.21,0,0-.07,0-.13.06a59.83,59.83,0,0,0,.18-27.19,36.92,36.92,0,0,0,5.56.42c13.89,0,25.14-7.59,25.14-17s-11.26-17-25.14-17a37,37,0,0,0-4.32.26c-1.79-2.06-7.44-3.94-15.91-5.52l1.52-22.58c-21.1-1.75-43.83-2.87-68-3-22.66-.12-44,.65-64,2l.78,23.35c-7.65,1.35-13.19,2.95-15.9,4.69-2.06-.12-3.64,0-4.34,0-13.89,0-25.14,7.18-25.14,16s11.26,16,25.14,16a39.31,39.31,0,0,0,4.45-.26A53.44,53.44,0,0,0,91.29,125a49,49,0,0,0,2.86,18.41c.14,1.52,0,2.85-.84,3.39s-1.85.3-2.19,1.07.52,1.17.6,2.43c0,.52-.47,1.56-1.47,3.66a9.25,9.25,0,0,1-1,2.17.11.11,0,0,0,0,.08c0,.25,1.35.05,1.86.51s-.16,2.17-.84,4.62c-.58,2.1-1.46,5.23-.29,6.16.78.62,1.88-.2,2.46.44.93,1-1.14,4.1-.53,4.51.29.2.8-.49,2-.65a5.59,5.59,0,0,1,1.89.22c1.51.08,3.59-4,4.4-8.47.09-.5.16-1,.21-1.52.07.86.14,1.78.21,2.82.46,6.3.84,12.65.84,12.65s.33,10.25.19,12.18c-.54,7.44-2.08,13.79-5.87,24.28-3.16,8.76-7.36,19.63-12.81,32L74.3,283a174.82,174.82,0,0,0,66,31s41.21,8.82,82.4-4.76c1.77-.58,3.6-1.24,3.6-1.24a123.83,123.83,0,0,0,38.19-21.5,122.06,122.06,0,0,0,16-16c-1.56-3.09-4.13-8.25-7.22-14.68C255.81,219.54,253.1,207.8,252.34,204.16Z"/><path class="cls-3" d="M276.3,275c-4.06-6.43-7.38-12.25-10-17.18-4.51-8.36-16.47-30.48-20.93-51.66-1.19-5.67-3-17.44-3.17-18.41a92.66,92.66,0,0,1-1.24-10.17c-.1-1.88-.1-3.35-.06-4.6.81,2,1.8,3.33,2.64,3.32a5.39,5.39,0,0,1,1.86-.16c1.17.2,1.64.91,1.94.72.6-.39-1.33-3.53-.38-4.52.58-.62,1.64.24,2.42-.35,1.18-.89.42-4-.09-6.17-.59-2.47-1.34-4.08-.68-4.65s1.81-.2,1.84-.45a.11.11,0,0,0,0-.08,9.37,9.37,0,0,1-.88-2.2c-.91-2.13-1.37-3.19-1.32-3.71.11-1.26.94-1.68.66-2.41s-1.43-.65-2.12-1.14c-2.35-1.68,1.27-10,.87-10.21,0,0-.07,0-.13.06a59.83,59.83,0,0,0,.18-27.19,36.92,36.92,0,0,0,5.56.42c13.89,0,25.14-7.59,25.14-17s-11.26-17-25.14-17a34.44,34.44,0,0,0-13.27,2.56,85.89,85.89,0,0,0-17.3-7.29c-1.58-1.24-3.23-2.43-4.93-3.57-11.5-9.9-30.06-16.34-51-16.34-21.58,0-40.62,6.82-52,17.22A89.86,89.86,0,0,0,96.3,81.41c-5.85-2.32-11.73-1.9-13.28-1.9-13.89,0-25.14,7.18-25.14,16s11.26,16,25.14,16a39.31,39.31,0,0,0,4.45-.26A53.44,53.44,0,0,0,84.29,127a49,49,0,0,0,2.86,18.41c.14,1.52,0,2.85-.84,3.39s-1.85.3-2.19,1.07.52,1.17.6,2.43c0,.52-.47,1.56-1.47,3.66a9.25,9.25,0,0,1-1,2.17.11.11,0,0,0,0,.08c0,.25,1.35.05,1.86.51s-.16,2.17-.84,4.62c-.58,2.1-1.46,5.23-.29,6.16.78.62,1.88-.2,2.46.44.93,1-1.14,4.1-.53,4.51.29.2.8-.49,2-.65a5.59,5.59,0,0,1,1.89.22c1.51.08,3.59-4,4.4-8.47.09-.5.16-1,.21-1.52.07.86.14,1.78.21,2.82.46,6.3.84,12.65.84,12.65s.33,10.25.19,12.18c-.54,7.44-2.08,13.79-5.87,24.28-3.16,8.76-7.36,19.63-12.81,32L67.3,285a174.82,174.82,0,0,0,66,31s41.21,8.82,82.4-4.76c1.77-.58,3.6-1.24,3.6-1.24a162.89,162.89,0,0,0,40-21A164.94,164.94,0,0,0,276.3,275Z"/><circle class="cls-4" cx="208" cy="128.51" r="6.03" transform="translate(-9.69 17.2) rotate(-4.63)"/><circle class="cls-5" cx="205.94" cy="131.14" r="2.26" transform="translate(-0.8 261.03) rotate(-64.63)"/><path class="cls-6" d="M109.53,120.51c-.25-.27.93-2.17,2.76-3.45,2.23-1.55,4.95-1.85,5.09-1.49.07.18-.5.46-3.71,2.49S109.69,120.68,109.53,120.51Z"/><path class="cls-6" d="M218.46,120.18c.24-.28-1-2.14-2.87-3.36-2.28-1.48-5-1.69-5.14-1.32-.06.18.51.44,3.79,2.37S218.31,120.35,218.46,120.18Z"/><path class="cls-6" d="M90.63,97.63c-.86,3.88-1.3,5.83-1.39,6.62-.36,3.09-.12,4.44-1.16,5.48-.79.79-2,1-5.06.84a35.82,35.82,0,0,1-11.3-2.12,23.48,23.48,0,0,1-8-4.27c-1.9-1.63-4.18-3.59-4.1-6.2s2.24-4.24,3.47-5.21c3.29-2.59,6.64-3,12.4-3.68,14.12-1.69,16.21-2,17.08-.53C93.11,89.51,92.35,89.91,90.63,97.63Z"/><path class="cls-6" d="M244.67,100.68c1,3.84,1.55,5.77,1.67,6.56.49,3.08.31,4.43,1.39,5.42.83.76,2,.95,5.09.62a35.82,35.82,0,0,0,11.2-2.6,23.48,23.48,0,0,0,7.85-4.61c1.83-1.71,4-3.76,3.83-6.37s-2.42-4.14-3.69-5.06c-3.39-2.45-6.76-2.7-12.54-3.14-14.18-1.08-16.28-1.27-17.09.2C241.84,92.68,242.62,93,244.67,100.68Z"/><ellipse class="cls-7" cx="170.74" cy="168.85" rx="7.94" ry="8.82" transform="translate(-5.72 331.71) rotate(-87.39)"/><path class="cls-8" d="M201.11,140.1c0-8.43-16.17-15.26-36.12-15.26s-36.12,6.83-36.12,15.26c0,4.93,5.53,9.31,14.12,12.1-3.37,4.44-4.13,9.95-1.45,14,3.62,5.49,12.15,6.25,19,1.7a17.89,17.89,0,0,0,5.3-5.36,17.31,17.31,0,0,0,7.74,6.37c7.59,3.26,15.84,1,18.44-5,1.74-4.06.48-8.79-2.84-12.45C196.52,148.63,201.11,144.59,201.11,140.1Z"/><ellipse class="cls-9" cx="167.87" cy="139.56" rx="16.87" ry="10.72"/><ellipse class="cls-8" cx="173.18" cy="135.06" rx="9.37" ry="4.29"/><ellipse class="cls-5" cx="172.84" cy="135.06" rx="8.75" ry="3.18"/><path class="cls-10" d="M52.35,253.29"/><path class="cls-11" d="M287.31,216.31"/><circle class="cls-4" cx="121.98" cy="128.04" r="6.03"/><circle class="cls-5" cx="124.25" cy="130.51" r="2.26" transform="translate(-48.61 79.61) rotate(-30)"/><path class="cls-12" d="M170.85,239.71c.11.07.28,0,.16-.29l-.38-.08Z"/><path class="cls-12" d="M170.86,237.81c-.25-.25-.64-.5-.86-.2.4.19.3.3.77.5.12.24.05.48-.08.47.11.06.06.42.31.49a1.19,1.19,0,0,0-.35-1.2C170.68,237.74,170.79,237.81,170.86,237.81Z"/><path class="cls-12" d="M160,213.94l.06.16A.5.5,0,0,0,160,213.94Z"/><path class="cls-12" d="M149.88,201.14c.1.08.16.09.18.08S149.88,201.1,149.88,201.14Z"/><path class="cls-12" d="M148.1,198.94l.1.13C148.18,199,148.15,199,148.1,198.94Z"/><path class="cls-12" d="M160,213.94l-.16-.42C159.77,213.55,159.93,213.75,160,213.94Z"/><path class="cls-12" d="M168.89,234.69a.69.69,0,0,0,.16.19l-.11-.19Z"/><path class="cls-12" d="M164,220l.07.12.17,0Z"/><path class="cls-12" d="M166.52,224.9c0-.12-.31,0-.45,0a.39.39,0,0,1,.29.16A.41.41,0,0,0,166.52,224.9Z"/><path class="cls-12" d="M169.52,233.13l.09.13Z"/><path class="cls-12" d="M162,216.52a.21.21,0,0,0,.06-.09A.15.15,0,0,0,162,216.52Z"/><path class="cls-12" d="M98.24,94.61h0S98.25,94.57,98.24,94.61Z"/><path class="cls-12" d="M100.56,88.51v.09l.15,0Z"/><path class="cls-12" d="M144.4,195.33l0,0C144.54,195.4,144.48,195.36,144.4,195.33Z"/><path class="cls-12" d="M105,172.44c.08.56-.74-.51-.54.28C104.49,172.6,105.19,173.06,105,172.44Z"/><path class="cls-12" d="M168.88,234.54l-.08-.21A.77.77,0,0,0,168.88,234.54Z"/><path class="cls-12" d="M104.43,172.72h0l0,.08Z"/><path class="cls-12" d="M134.32,189a.37.37,0,0,0,0,.17S134.37,189.08,134.32,189Z"/><path class="cls-12" d="M141.62,194l-.15-.16A.92.92,0,0,0,141.62,194Z"/><path class="cls-12" d="M130,187.31a.56.56,0,0,0-.28-.15l0,.05A.29.29,0,0,1,130,187.31Z"/><path class="cls-12" d="M125.63,185.5l.06.08.15,0Z"/><path class="cls-12" d="M96.5,108.86a.84.84,0,0,1,.28-.19C96.57,108.72,96.59,108,96.5,108.86Z"/><path class="cls-12" d="M169,234.63a.17.17,0,0,1-.16-.09l.07.14S169,234.67,169,234.63Z"/><path class="cls-12" d="M128.95,189.26l-.65-.33C128.47,189,128.71,189.15,128.95,189.26Z"/><path class="cls-12" d="M95.14,142.76l0-.17A.25.25,0,0,0,95.14,142.76Z"/><path class="cls-12" d="M126.27,188.13a1.15,1.15,0,0,0-.31-.33.29.29,0,0,0-.11,0Z"/><path class="cls-12" d="M96.78,108.67h0Z"/><path class="cls-12" d="M96.72,103.68c-.09.71.32.38.51.55,0,.86-.32.36-.54.63,0,.54.32,1,.26,1.38-.06,0-.1.1-.16,0,.22.59-.19,1.66.1,2.35a.22.22,0,0,1-.1.07.79.79,0,0,1,.52,0c0,.32.16.61-.09.71,0-.19-.06-.22-.13-.32l.06.34c-.38.26-.06-.47-.32-.5a7.8,7.8,0,0,1,.09,1.94c-.35.07,0-1.18-.37-.54l.22-.76c-.6.53.09-.46-.54,0-.23,1,.06,1.16-.14,2.16.17.25.28,0,.45.2.21,1.47-1,1.05-.6,2.16.2.3.62.44.32,1.18l-.36-.29c-.13,1,.5.61.15,1.62-.13-.2-.06-.79-.12-.64-.36.64.17.49.13,1l-.35.08c0,1.06.08,2.23.08,3.4-.1-.07-.19-.28-.31,0a18.75,18.75,0,0,1-.49,4.55l.26.56c0,.13-.15.23-.19.09-.14.55.18,0,.29.31s-.19.41-.27.2a9.88,9.88,0,0,1,.07,3.82l-.08-.2c-.13.8.59.92.3,1.66l-.05-.14c-.15,1.74.09,3.66-.37,5,.41.25-.14,1.73.45,1.83a7.76,7.76,0,0,0-.53,2.13c0,.38.39.55.46,1l-.31,0,.34.61-.36.35.09.43c0-.17.13-.37.22-.35a2.35,2.35,0,0,1-.3,1.69l.39,1.59c-.13,0-.19-.29-.29-.5.39.83-.31.18,0,.94.06-.11.19,0,.25.06a4.55,4.55,0,0,0,.05,2l-.22-.11a30.79,30.79,0,0,0,.52,3.84c0-.49.41-.43.5,0l-.3.2c.24.22.06-.42.38.06,0,.5-.32.38-.47.11l.2.59c-.09,0-.16-.09-.29-.1.24.22-.17,1.1.23,1.4l-.09,0a23.09,23.09,0,0,0,.64,3c.28,0,.31.4.6.67a18.3,18.3,0,0,0,.28,2.68c.28.63.27.14.5.4-.24.11.07,1-.26.6a21.1,21.1,0,0,0,1.1,2.78c.05-.19,0-.37.16-.31.12.24.07.62-.06.62l0-.06a10.2,10.2,0,0,1,.77,2.61,4.78,4.78,0,0,0,.87,2.31l-.05-.06c.29.38.59.75.89,1.11.26.59-.35-.25-.27.24,1.08,1.12,1,2.16,2,3a3.59,3.59,0,0,0,1,2,7.4,7.4,0,0,1,1.57,2l.08-.18c.35.14.2.38.33.6.08-.12-.13-.39.08-.3.52.5,1.11.94,1.64,1.45l.8.77.88.7a24.15,24.15,0,0,0,3.65,2.58c.94.53.94-.56,2,.38l-.48.14c2.1.53,4,1.66,6.06,2-.14,0-.18.12-.36.06.33.37,1.49.54,1.56.36.29.13,0,.19.16.35.36.27,1.11.07,1.24.37,0,0-.14,0-.22,0,.3,0,1.2.47,1.05.12.66.39,1.39.38,1.89.76.48-.14,1.14.61,1.41.26-.22.4,1.07.84,1.58.85-.2.06.32.3.07.4.49.22,1,.35,1,.1.67.9,2,.49,2.18,1.35a35,35,0,0,1,4.21,1.76c-.27.36-1.41-.76-1.59-.32a11,11,0,0,1,3.24,1.44c.26.24-.27.06-.41.06,1.25.59,2.21,1.44,3.31,2,0,0-.16,0-.28-.05.2.13.41.39.51.2l-.22-.09c-.14-.47,1.14.07,1.27,0-.68.23.89.84-.09,1,.15.06.37.1.42,0,.16.17.18.28-.11.26.75.43.66.05,1.26.56-.06.08-.21,0-.34,0a2.26,2.26,0,0,1,1.3.7c-.07,0-.06.13-.21,0,.87.72,1.84.83,2.62,1.83-.56.06.21.4,0,.72l.56.38-.07-.32c.42.41,1,.57,1.27,1l-.42-.19.85.71-.35-.53c.57.27.29-.38.78.24-.14-.09.42.42.46.81h0a1.59,1.59,0,0,1,.81.65c0,.16-.36.22-.37.32.42,0,1,.95,1.5,1a.27.27,0,0,0-.29.15h.35c.13.25.12.31,0,.38.5.65.19-.52.67.36-.06,0-.07,0-.2-.09.55.82,1.34,1.35,1.82,2.12-.12.44-.58-.54-.63-.11a21.79,21.79,0,0,1,2.7,2.88l-.11-.21c.53-.17.36.9.93,1.27-.12-.11-.36,0-.28,0a15,15,0,0,0,2,2.36l-.2-.06c.19.48.69,1.14.91,1.65.2.07.35.34.41.08a4,4,0,0,0,1.14,2.15,4,4,0,0,1,1.07,2c-.09-.16-.31-.31-.24-.19l.74,1c.15-.2,0-.21.07-.53a1.5,1.5,0,0,1,.63.62c-.42-.43-.32.18-.32.46,0-.07.15,0,.2-.08-.06.79.46-.12.64.82h-.13a3.64,3.64,0,0,1,.64.83c-.17.26-.28-.27-.48-.19.25.45.92.68.9,1.22-.17-.16-.31-.44-.48-.61a1.51,1.51,0,0,0,.18,1v0c.09.28.17.57.25.85l0-.24c.9.28.68,1.13,1.46,1.73-.75-.59-.29,0-.59,0,0,.24.08.58,0,.53.4.27.12.7.67,1.08-.08.06.17.41-.1.42.28.46.11-.18.23-.19.63.63.41,1.93,1.27,2.85.55.88.93.93,1.43,1.76,0,.36-.43-.12-.43-.12a2.79,2.79,0,0,0,.5,1.3c-.11-.06-.15.06-.2.24.16.36.42.12.47.66a1.45,1.45,0,0,1-.5-.23c.24.4.57.77.82,1.18-.12.18-.34-.18-.5-.3.26.48.62,1.25.93,1.32l0-.36c.08.18-.19.17-.28.05-.36-.36-.14-.65-.06-.71l.18.3c.42-.52-.56-1.25-.76-1.91l.49.12-.57-.54c0-.18.23-.36.41-.06,0-.54-.29-.36-.23-.83,0-.06,0,0,.07,0l-.29-.4c.12.06.24-.18.3.12-.1-.89-.81-1.18-.63-1.6l.05.06c-.57-1.06-.33,0-1-.69l.46-.85h-.33c0-.12-.12-.35,0-.36-.38-.34-.09.12-.38,0,0-.66-.77-1.45-.38-1.77-.3-.1.06.6-.34.08.41-.38-.38-.64-.4-1.23.32,0,.41.57.39,0-.55-.11-.36-1-.64-1.39-.34.14-.55-.85-1-1.48a14,14,0,0,0-.7-2.08h.06c-.39,0-.65-.65-1-1.08.2-.09.33,0,.56.17l-.25-.44a1,1,0,0,1-.49-.42l.3,0a8,8,0,0,1-1.22-1.88c-.24.09-.28,1-.87.25.1-.1.29-.25.46-.07-.05-.06-.24-.19-.26-.35l.38.2c-.11-.4-.27-.08-.41-.37.17-.1,0-.27.16-.31s.08.27.2.34a1.89,1.89,0,0,1-.23-1c-.08.08-.23.14-.39-.07-.37-.57.08-.32,0-.71-.2-.07-.31-.51-.57-.36-.1-.17,0-.27,0-.38-.29-.23-.9-1.37-1-.87l0,.09,0,0h0c-.89-.78-1.2-2.06-1.95-2.93l.08-.06a9.15,9.15,0,0,0-1.41-1.44c-.12-.16-.14-.49,0-.49a2.45,2.45,0,0,1-.82-1c.45.31,0-.24.42.35-.35-.59-.29-.83-1-1.21.36,0-.08-.59-.35-.79l.17.48a5.68,5.68,0,0,1-.64-.77l.37-.08c-.59-1.34-2.12-1.48-2.35-2.69-.42-.11.39.66,0,.6a8.06,8.06,0,0,1-.64-1.45c-.47-.77-.91-.26-1.44-1,0,.17-.14.46-.72.07s-.22-.89.14-.68c.12.1.14.18.11.2.18.11.41.26.32,0l-.14,0c-.14-.3-.79-.9-.51-.9-.43-.25-.29,0-.07.29-.48-.69-.92-.89-1.46-1.56.05.14,0,.33,0,.24-.8-1-.54-.22-1.21-.72-.24-.44.42-.21-.33-.64-.31-.43.12-.31.34-.25-.74-.33-1-1-1.32-1.37l.37.19a2.63,2.63,0,0,1-.53-.38l0,.33c-.16-.19-.31-.32-.25-.39-.29,0-.11.43-.61.28-.16-.31-.84-.5-.73-.81.74.68.11-.32.81.16a1.87,1.87,0,0,1-.48-.37s.07,0,.13,0c-.6-.8-.57,0-1.37-.58.21-.07,0-.41-.14-.47.32.24,0,.35-.4.24-.43-.49-.62-.33-.87-.54l.27.28c-.21.07-.45-.14-.83-.36,0-.14.38.16.29,0-.56,0-.72-.9-1.42-1.1-.2-.27.16-.29,0-.51-.77-.22-.57-.66-1.36-.94.07.33.13.3-.47.19l1.21.58-.9-.17c.33.22.79.33,1,.49-.45-.06-.38-.08-.33.19-.27-.6-1-.41-1.42-1l.32-.49c-.66-.76-1.61-.6-2.6-1.36l.29.29c-.26.12-.68-.35-1.08-.45.13-.16-.06-.34-.15-.53-.05.14-.8-.44-1.08-.14l-.37-.48c-.85-.54-1.27,0-2.1-.48.35-.07,0-.39.67-.25-.29-.14-.54-.29-.6-.17-.12-.19-.92-.13-1.11-.42-.16,0-.28.19-.6,0,0-.05,0-.09,0-.09s-.57-.1-.37.23c-.66-1-2.55-1-3.16-1.8-.68-.18-1.48-.41-2.08-.61.06,0,0-.09.14,0-.76-.47-.69.35-1.55-.17-.37-.47.55,0,.3-.21.09-.66-1.15-.31-1.65-.89l.16,0c-.4-.37-1.24-.18-2-.51,0,0,.06,0,0-.09a6.44,6.44,0,0,1-2.44-.39c.32-.14.38,0,.34-.28-.34-.1-.06.42-.74.22-.16-.21-.58-.53-.52-.81l.61.25c-.17-.45-.78-.34-1.07-.54l.11-.12c-.94-.37-1.11-.05-2.08-.56l0,.16c-.71.06-.33-.43-1-.47l0-.43a9.34,9.34,0,0,1-2-.74,9.27,9.27,0,0,1,1.75.43c-.33-.19-1.08-.69-1.36-.64.15.06.36.08.45.22a3.17,3.17,0,0,1-1.8-.69c.58-.51-1.38-1.49-1.38-2.28a6,6,0,0,1-1.37-1.48l-.62-.86a10.77,10.77,0,0,0-.6-1c-.18.8-.27-.37-.72.06-.24-.29-.31-.41-.3-.46l-.32-1.12c0-.31.31.22.41.12-.4-.68,0-.42-.07-1-.14.21-.4-.09-.54-.53l.05.71c-.81-.84,0-1.1-.8-1.94l.34.23c-.18-.23-.44-.69-.71-1.15a2.52,2.52,0,0,0-.86-1.1c0-.12.13-.31.27-.09a12.15,12.15,0,0,0-1-2,4.48,4.48,0,0,1-.62-1.89l.17.06c-.12-.24-.4-.35-.35-.71.06,0,.17.06.15-.06a2.17,2.17,0,0,1-.47-.95l.25.24c-.23-1.35-.95-1.92-1.29-3,.43-.1.34-1.18.3-1.72h.06c-.32-1.56-.85-2.6-1.24-4.05.35-1-.3-3.12-.1-4.63-.06.23-.34,0-.41-.26s-.38-.94,0-.92v.12c.37-.3.21-1,.17-1.56l-.53-.05a5.21,5.21,0,0,0,0-2.58c-.11-.87-.22-1.67.11-2.08-.14-.35-.16-.79-.3-1.13h.28a16.69,16.69,0,0,0,0-2.68l.21.24c0-.68-.85-.85-.85-1.49l.43-.19c0-1.2.4-2.4,0-3.59a.25.25,0,0,1,.2.25c0-.56.32-2.17-.27-2,.38,0,0-1.23-.1-1.89l.27.11a2.16,2.16,0,0,1-.48-1.35c0-.18.23-.15.15.09.18-.6-.24-.48-.05-1.2l.16.28a1,1,0,0,0-.23-.92c-.09-.4.13-1.17.39-1.25a.8.8,0,0,1-.24-.8c.1,0,.15.09.17.16.25-1-.24-1.56.07-2.26a.2.2,0,0,0,.17-.11,13.36,13.36,0,0,1-.12,1.42c.26,0,.34-.64.66-.1a4.73,4.73,0,0,1-.38-2.12.32.32,0,0,1,.09-.08l0,.07a.83.83,0,0,0,0-.41,2.71,2.71,0,0,0,.13-.53c.22-.06.18-.75.22-1.08-.28,0-.2-.42-.47,0,0-.05,0,.07,0,.29a.6.6,0,0,0,0,.14l0,0-.05.82a.94.94,0,0,1,0-.91,6.22,6.22,0,0,1-.41-.5c.43-.42.72-1.28,1-1.38-.07-1,.11-2.38-.36-3.07,0-.29.18-.32.27-.42,0,.17,0,.37.08.46-.08-.59.1-1.71-.25-1.88.23-.71.3.44.33-.56l.1.15c.76-1.89-.57-3.28.43-5.36-.06.14-.09.22-.16.24.65-2.42.27-5.13,1.16-7.49.21-.67,0-.78-.13-1.23l.32-.11-.24-.77c-.1-1.06,1-1.66.71-3l-.23.14c.11-.46.1-1.49.32-1.38,0-.05-.19-.18-.05-.35h.16l-.1-1.18c.24-.87.6.24.82-1,0-.49-.25-1.44-.38-1.27s-.17.48-.33.47l0-.45c-.45-.15-.87-.57-1.35.46l.17.8-.26.21.08-.64c-.26.33-.11.58,0,.86a.49.49,0,0,0-.29.28l.33.81c-.19.06-.31-.39-.48.09.15.38.45-.27.5.32-.26.33-.42.2-.3.65-.13,0-.19-.06-.22-.24.09.4-.09,1,.13,1.24-.31.34-.12,1.28-.55,1.18a2.44,2.44,0,0,1,.21,1.06c-.43-.71-.22,1.29-.76,1,.4.53,0,1.72.09,2.58,0-.05-.09-.15-.06-.22a3.51,3.51,0,0,1-.4.87c.38.11.38.85.57,1.28-.44.52-.41-.41-.8-.28.32,0,.19,1,.48.88-.29.41-.16.36-.51.55.48.14,0,.42.29.82-.32.6-.48.11-.41.82C96.81,104.32,96.72,103.68,96.72,103.68Zm-.83,16.71h0v0Zm-.07,1.4c0-.17,0-.38,0-.61.1,0,.2,0,.18.16C96,121.26,95.91,121.59,95.81,121.79ZM98,119c0,.22,0,.29-.1.32s0-.23,0-.39l0,0A.34.34,0,0,1,98,119Z"/><path class="cls-12" d="M97.62,118.55a.5.5,0,0,1,0-.09l-.07.13.08.08Z"/><path class="cls-12" d="M160.11,214.13v0a.16.16,0,0,1,0,.07A.21.21,0,0,1,160.11,214.13Z"/><polygon class="cls-12" points="94.95 141.19 95.02 141.19 94.95 141.07 94.95 141.19"/><path class="cls-12" d="M163.19,221.25a.19.19,0,0,0,0,.12A.24.24,0,0,0,163.19,221.25Z"/><path class="cls-12" d="M164.65,224.22l.11.46A2.55,2.55,0,0,0,164.65,224.22Z"/><path class="cls-12" d="M165.61,226.58a.35.35,0,0,0,.13,0h-.13Z"/><path class="cls-12" d="M140.67,195.62l-.09,0C140.37,195.48,140.51,195.55,140.67,195.62Z"/><path class="cls-12" d="M150.15,202.93a2.74,2.74,0,0,1-.36-.19C149.92,202.91,150,203,150.15,202.93Z"/><polygon class="cls-12" points="129.02 189.29 129.02 189.29 128.95 189.26 129.02 189.29"/><path class="cls-12" d="M149.4,202.34a1.34,1.34,0,0,0,.39.4A1.34,1.34,0,0,0,149.4,202.34Z"/><path class="cls-12" d="M169.65,236.82l0,.12h0Z"/><path class="cls-12" d="M169.73,236.94l.08.12C169.78,237,169.76,236.95,169.73,236.94Z"/><path class="cls-12" d="M170,237.31l-.16-.25C169.83,237.15,169.86,237.27,170,237.31Z"/><path class="cls-12" d="M168.6,233.62h-.11A.16.16,0,0,0,168.6,233.62Z"/><path class="cls-12" d="M168.2,232.68a3.06,3.06,0,0,0,.21.94h.09C168.29,233.53,168.44,232.83,168.2,232.68Z"/><path class="cls-12" d="M167.71,228.23l.27.83c0-.18.09-.42.28-.07C168.12,227.86,168.12,229.29,167.71,228.23Z"/><path class="cls-12" d="M166.75,225.72c.24.4.14-.07.21-.08C166.74,225.42,166.69,225.36,166.75,225.72Z"/><path class="cls-12" d="M156.78,209l.23-.12C156.77,208.66,156.93,209,156.78,209Z"/><polygon class="cls-12" points="153.44 206.98 153.54 207.35 153.83 207.32 153.44 206.98"/><polygon class="cls-12" points="153.41 204.12 153.54 204.21 153.06 203.83 153.41 204.12"/><path class="cls-12" d="M126.51,185.57v.33C126.74,185.94,126.92,185.63,126.51,185.57Z"/><path class="cls-12" d="M113.45,180.76a.72.72,0,0,0-.63-.46C113.08,180.46,113.29,180.73,113.45,180.76Z"/><polygon class="cls-12" points="97.66 144.77 97.79 145.04 97.66 144.52 97.66 144.77"/><path class="cls-12" d="M170.83,239.4c.07.11.27.09.28-.18l-.29-.24Z"/><path class="cls-12" d="M171.73,237.74c-.11-.33-.32-.74-.66-.59.26.36.12.41.43.8,0,.27-.18.44-.3.37.07.11-.14.39,0,.57a1.17,1.17,0,0,0,.26-1.21C171.61,237.6,171.68,237.71,171.73,237.74Z"/><path class="cls-12" d="M180.52,213.69l-.11.12A.48.48,0,0,0,180.52,213.69Z"/><path class="cls-12" d="M190.71,201.72c-.09.08-.11.14-.09.16S190.75,201.72,190.71,201.72Z"/><path class="cls-12" d="M193,200.35l-.14.08C193,200.42,193,200.39,193,200.35Z"/><path class="cls-12" d="M180.52,213.69l.3-.32C180.74,213.29,180.64,213.52,180.52,213.69Z"/><path class="cls-12" d="M171.63,234.08a.65.65,0,0,0,0,.25c0-.08,0-.15,0-.22Z"/><path class="cls-12" d="M177.65,220.05l-.05.12a.82.82,0,0,0,.08.15Z"/><path class="cls-12" d="M175.78,225.06c0-.11-.2-.24-.3-.33a.39.39,0,0,1,.1.31A.42.42,0,0,0,175.78,225.06Z"/><path class="cls-12" d="M173,233.13v0Z"/><path class="cls-12" d="M179.32,216.61a.22.22,0,0,0,.11,0A.15.15,0,0,0,179.32,216.61Z"/><path class="cls-12" d="M234.45,94.18h0S234.44,94.14,234.45,94.18Z"/><path class="cls-12" d="M235.22,87.8l0,.08h.16Z"/><path class="cls-12" d="M197.32,198.07h0C197.2,198.16,197.26,198.12,197.32,198.07Z"/><path class="cls-12" d="M233.26,172.37c-.41.41,0-.92-.54-.27C232.84,172.07,232.89,172.94,233.26,172.37Z"/><path class="cls-12" d="M171.7,233.95l0-.22A.77.77,0,0,0,171.7,233.95Z"/><path class="cls-12" d="M232.71,172.1h0l-.05.07Z"/><path class="cls-12" d="M207.72,194a.36.36,0,0,0-.14-.09S207.62,194,207.72,194Z"/><path class="cls-12" d="M199.62,196.29l.2-.05A.82.82,0,0,0,199.62,196.29Z"/><path class="cls-12" d="M212,192.61a.54.54,0,0,0,.31-.06l-.06,0A.28.28,0,0,1,212,192.61Z"/><path class="cls-12" d="M216.48,191.24l-.1,0-.14.07Z"/><path class="cls-12" d="M235.76,108.17a.82.82,0,0,1,.24-.23C235.8,108,235.68,107.35,235.76,108.17Z"/><path class="cls-12" d="M171.78,234.11a.17.17,0,0,1-.09-.16l0,.15S171.75,234.13,171.78,234.11Z"/><path class="cls-12" d="M211.6,190.42l.71-.14A5.71,5.71,0,0,0,211.6,190.42Z"/><path class="cls-12" d="M236.36,141.27l0-.17A.24.24,0,0,0,236.36,141.27Z"/><path class="cls-12" d="M214.32,189.65a1.08,1.08,0,0,0,.44.06.28.28,0,0,0,.06-.09Z"/><path class="cls-12" d="M236,107.94h0Z"/><path class="cls-12" d="M235,103.16c0,.7.38.3.61.43.16.83-.24.41-.41.7.13.51.5.89.52,1.28-.06,0-.08.11-.16,0,.33.53.13,1.63.55,2.25a.22.22,0,0,1-.09.09.8.8,0,0,1,.5-.13c0,.31.27.57,0,.7,0-.19-.1-.2-.19-.29l.13.32c-.32.32-.15-.44-.41-.42a6.58,6.58,0,0,1,.44,1.86c-.33.12-.2-1.14-.45-.47l.08-.77c-.49.61,0-.46-.53.11,0,1,.25,1.1.23,2.11.2.21.27-.09.48.12.44,1.4-.76,1.16-.27,2.18.24.26.67.34.47,1.09l-.39-.23c0,1,.57.52.36,1.55-.16-.17-.16-.75-.2-.61-.28.67.24.45.26,1l-.34.12c.1,1,.39,2.15.5,3.29-.1-.06-.22-.25-.31,0a16.23,16.23,0,0,1-.08,4.46l.3.52c0,.12-.13.23-.19.1-.11.54.19,0,.3.28s-.17.41-.26.22a8.3,8.3,0,0,1,.25,3.72l-.09-.2c-.11.78.61.88.34,1.61l-.05-.14c-.06.85,0,1.75,0,2.59a6.92,6.92,0,0,1-.33,2.28c.41.26-.24,1.67.34,1.8a7.51,7.51,0,0,0-.66,2c0,.36.35.56.4,1h-.31l.3.63-.38.31.07.43c0-.17.15-.35.24-.32a2,2,0,0,1-.45,1.6l.14,1.57c-.12,0-.14-.31-.21-.52.25.85-.34.13-.11.91.08-.1.18.07.24.09a4.27,4.27,0,0,0-.25,1.87l-.2-.14c-.15,1.15-.06,2.44-.2,3.73.16-.45.51-.31.5.07l-.34.12c.17.26.17-.38.35.15-.1.48-.41.28-.48,0l0,.6c-.1,0-.13-.12-.25-.17.17.26-.45,1-.15,1.35l-.1,0c-.17,1.28-.13,1.88-.25,2.92.28.06.16.46.35.81-.17.76-.57,1.57-.71,2.48,0,.67.2.23.31.55-.26,0-.41.92-.5.41A19.58,19.58,0,0,0,234,162c.13-.13.21-.29.28-.18,0,.26-.21.55-.33.49v-.07c0,1.65-1.63,3.36-1.41,4.71v-.08c0,.45,0,.9-.07,1.34-.24.55-.07-.4-.36,0-.05,1.45-.78,2.07-.89,3.26-.52.28-.7,1.06-1,1.82a5.86,5.86,0,0,1-1,2h.19c0,.36-.25.3-.37.49.14,0,.28-.24.29,0a21.82,21.82,0,0,1-4.56,6.54c-.62.72.34,1-.81,1.62v-.47c-1,1.72-2.83,2.72-4.23,4,.06-.12,0-.21.16-.3-.47,0-1.26.73-1.18.91-.26.13-.14-.12-.35-.12-.39.1-.74.74-1,.61,0,0,.07-.12.13-.16-.19.21-1.11.48-.77.63-.72.13-1.23.62-1.84.64-.26.41-1.22.24-1.22.68-.08-.45-1.32,0-1.73.31.12-.17-.43,0-.3-.27-.51.14-1,.33-.82.54-1.09-.3-1.84.89-2.55.34-1.52.62-2.94,1.14-4.31,1.68-.08-.46,1.55-.5,1.36-.93a22.27,22.27,0,0,1-3.3,1.51c-.36.06.13-.25.22-.36-.64.31-1.27.54-1.89.79a7,7,0,0,0-1.72.88s.09-.14.19-.22c-.22.12-.55.18-.44.35l.2-.15c.48.11-.62,1-.58,1.13.11-.72-1.15.44-.9-.53-.13.11-.26.29-.17.39-.23.08-.34,0-.19-.21-.73.52-.36.54-1,.94,0-.09.07-.2.09-.35a2.41,2.41,0,0,1-1.12,1c0-.07-.1-.1.07-.2-1,.61-1.35,1.51-2.5,2.06,0-.58-.42.15-.7-.11l-.47.51.33,0c-.47.36-.71.9-1.19,1.12l.25-.39-.83.75.58-.28c-.34.52.34.31-.32.74.09-.14-.43.39-.81.44h0a1.6,1.6,0,0,1-.65.81c-.17,0-.22-.36-.32-.37,0,.42-1,1-1,1.52a.27.27,0,0,0-.16-.28v.35c-.25.14-.3.14-.38,0-.6.57.52.14-.3.71,0-.07,0-.07.07-.21a7.43,7.43,0,0,0-1,1.06,6.8,6.8,0,0,1-.86,1.06c-.46,0,.43-.67,0-.64-.39.53-.73,1.12-1.08,1.7a12,12,0,0,1-1.06,1.66l.17-.17c.33.45-.76.61-.93,1.27.06-.15-.12-.33-.1-.26A13.75,13.75,0,0,0,180,212.8l0-.21a13.41,13.41,0,0,0-1,1.58c0,.21-.13.47.13.4a3.57,3.57,0,0,0-1.26,2.08,4.44,4.44,0,0,1-1,2c.07-.16.06-.44,0-.31l-.39,1.22c.25,0,.19-.1.47-.27a1.46,1.46,0,0,1-.11.86c.08-.58-.34-.14-.56,0,.08,0,.12.1.2.11-.64.46.37.27-.21,1l-.1-.09a3.6,3.6,0,0,1-.19,1c-.3,0,0-.38-.19-.48-.17.49.11,1.12-.3,1.47,0-.23.12-.52.13-.75a1.52,1.52,0,0,0-.6.78l0,0c-.15.25-.29.52-.42.78l.15-.18c.45.84-.3,1.29-.14,2.25-.15-.93-.19-.21-.46-.36-.15.18-.35.48-.4.36.11.46-.38.6-.2,1.26-.1,0-.13.42-.34.26-.08.54.2-.07.3,0,.08.88-.93,1.75-.77,3-.08,1,.2,1.29.16,2.25-.22.27-.29-.33-.29-.33a2.54,2.54,0,0,0-.31,1.35c-.06-.11-.15,0-.29.09-.06.39.29.33,0,.8a1.44,1.44,0,0,1-.31-.46c0,.47.09.95.08,1.43-.19.09-.2-.33-.27-.52,0,.54-.12,1.39.12,1.6l.16-.32c0,.19-.25.06-.27-.09-.12-.49.22-.63.32-.64v.34c.63-.23.16-1.34.34-2l.35.36-.19-.75c.14-.12.39-.17.37.17.31-.43,0-.45.27-.81,0,0,.06,0,.07,0l0-.49c.06.11.3,0,.18.26.41-.77,0-1.4.39-1.64v.07c.16-1.17-.27-.18-.39-1.13l.88-.38-.27-.19c0-.11.12-.34.23-.27-.08-.49-.15,0-.27-.27.43-.49.33-1.59.83-1.57-.16-.27-.33.49-.31-.16.56,0,.11-.72.51-1.16.2.24-.09.67.31.24-.33-.44.42-1,.48-1.4-.33-.13.14-1,.31-1.72a13.52,13.52,0,0,0,1.06-1.86l0,0c-.3-.27.06-.9.19-1.42.19.11.24.23.21.52l.19-.45a.92.92,0,0,1,0-.63l.2.22a6,6,0,0,1,.77-2c-.21-.16-.94.3-.7-.58.14,0,.37.1.31.34,0-.08,0-.3.14-.41l.05.42c.26-.3-.09-.27.07-.53.17.09.23-.14.35,0s-.19.21-.17.35a1.72,1.72,0,0,1,.67-.68c-.11,0-.24-.12-.15-.36.28-.6.31-.09.58-.38,0-.2.28-.5,0-.65.09-.17.23-.13.34-.16,0-.36.73-1.4.28-1.22l-.06.07,0-.06h0c.29-1.13,1.36-1.88,1.83-2.89l.08.06a11.35,11.35,0,0,0,.9-1.74c.11-.16.41-.27.46-.13.24-.45.16-.58.76-1-.18.5.23,0-.23.48.48-.46.7-.47.93-1.18,0,.34.56-.17.69-.46l-.43.24a5.26,5.26,0,0,1,.62-.74l.15.35c1.16-.72,1.13-2.22,2.3-2.49.08-.42-.61.41-.59,0,.44-.43,1.27-.48,1.4-.62.74-.42.24-.88,1-1.38-.16,0-.45-.18,0-.71.52-.35.91-.08.67.23-.11.1-.19.11-.21.08-.13.15-.28.37,0,.3l0-.14c.32-.09,1-.62.93-.35.29-.37,0-.27-.27-.11.72-.35,1-.75,1.66-1.16-.14,0-.31,0-.21-.09,1-.58.29-.49.92-1,.48-.11.11.45.69-.13.47-.18.26.2.15.39.47-.62,1.22-.6,1.59-.78l-.28.28a2.27,2.27,0,0,1,.49-.36l-.31-.09c.21-.08.38-.18.42-.09.12-.25-.35-.25-.06-.67.31-.06.75-.56,1-.33-.89.35.24.23-.44.65a1.32,1.32,0,0,1,.5-.26s0,.07,0,.12c.92-.17.2-.51,1-.94,0,.22.34.2.46.11-.34.15-.29-.19,0-.46.61-.13.55-.37.85-.48l-.36.09c0-.21.32-.32.69-.55.09.11-.31.25-.15.24.3-.49,1.11-.1,1.63-.54.32,0,.15.3.42.28.6-.47.82,0,1.48-.46-.28-.15-.3-.09.14-.48l-1.14.57.65-.59c-.36.12-.71.41-.94.44.3-.31.28-.24,0-.37.62.17.92-.55,1.58-.5l.16.57c.94,0,1.46-.76,2.65-.92h-.39c.09-.27.7-.23,1.05-.41,0,.2.27.21.46.29-.05-.14.85-.2.86-.61l.58.13c1-.12.95-.8,1.87-1-.22.27.22.31-.35.61.31-.07.59-.1.56-.24.21.08.78-.47,1.11-.36.11-.12.1-.33.44-.4,0,0,0,.09,0,.09s.5-.27.15-.4c1.1.34,2.58-.79,3.55-.61l1-.49.95-.49c0,.07,0,.09-.08.12.88-.2.23-.74,1.18-1,.59,0-.37.42,0,.36.44.5,1-.69,1.77-.71l-.12.12c.6-.05.89-.94,1.58-1.41,0,0,0,.07.06.08a15.29,15.29,0,0,1,1.5-2c0,.36-.16.36.13.44.22-.28-.36-.23.08-.79.26-.07.7-.35,1-.21l-.46.5c.5,0,.61-.65.9-.86l.08.14c.71-.78.36-1.08,1.06-1.94l-.16,0c.05-.72.48-.27.61-.93l.43.08.37-.89c.16-.36.27-.8.42-1.12a3,3,0,0,1-.12.91c-.09.33-.25.64-.33.9a6.82,6.82,0,0,0,.48-.71,1.54,1.54,0,0,0,.2-.71c0,.16-.07.39-.2.49a3.55,3.55,0,0,1,.57-1.89c.3.25.6-.17.92-.68.16-.26.33-.53.51-.76a1.14,1.14,0,0,1,.52-.5c.3-1.41,1.3-2.48,1.85-4-.74.33.14-.46-.46-.58.09-.37.14-.5.19-.52l.72-1c.26-.2,0,.38.15.4.32-.77.36-.24.69-.72-.24,0-.2-.37,0-.8l-.49.54c.06-1.2.84-.79.87-2,0,.14.07.28.08.41.06-.61.57-2.15.24-2.84.09-.08.29-.18.27.09.42-1.38.33-3.2.79-4.22l.13.14c0-.27-.19-.51,0-.81.06,0,.13.14.16,0a2.25,2.25,0,0,1,0-1.07l.11.33c.45-1.33,0-2.17.11-3.33.45.08.75-1,.88-1.52l.06,0a25.19,25.19,0,0,0,0-4.28,5.16,5.16,0,0,0,.56-2.06,18.26,18.26,0,0,1,.35-2.51c-.1.22-.34-.07-.36-.33s-.23-1,.17-.9l0,.12c.41-.23.36-1,.42-1.52l-.52-.13a4.67,4.67,0,0,0,.42-2.55c-.05-.88-.12-1.68.24-2.06-.12-.36-.11-.8-.23-1.15l.28,0a16.68,16.68,0,0,0,.13-2.68l.19.25c0-.68-.79-.88-.79-1.51l.43-.18c0-1.19.4-2.39,0-3.57a.25.25,0,0,1,.2.25c0-.56.27-2.17-.31-2,.38,0,0-1.23-.14-1.87l.28.1a2.17,2.17,0,0,1-.56-1.31c0-.18.22-.16.15.08.14-.6-.27-.46-.12-1.19l.18.27a1,1,0,0,0-.29-.9c-.12-.38.07-1.17.31-1.26a.8.8,0,0,1-.32-.77c.09-.05.16.08.19.14.15-1-.39-1.52-.14-2.23a.2.2,0,0,0,.16-.12,13.13,13.13,0,0,1,0,1.41c.26,0,.27-.67.65-.15a4.68,4.68,0,0,1-.58-2.06.32.32,0,0,1,.09-.09l0,.07a.8.8,0,0,0-.06-.4,2.63,2.63,0,0,0,.06-.54c.21-.08.08-.76.08-1.09-.28,0-.25-.39-.47,0,0-.05,0,.06.06.28a.59.59,0,0,0,0,.14l0,0,.05.82a.93.93,0,0,1-.14-.89,6.44,6.44,0,0,1-.47-.44c.37-.47.55-1.34.79-1.47-.2-1-.2-2.36-.76-3-.08-.28.13-.34.21-.45.07.16.07.36.15.44-.16-.56-.17-1.68-.55-1.8.11-.73.37.38.24-.6l.12.13c.45-2-1.17-3.09-.56-5.29,0,.15-.05.23-.11.26.16-2.48-.65-5-.39-7.47,0-.69-.2-.75-.42-1.15l.29-.18-.42-.68c-.35-1,.56-1.83,0-3.06l-.19.19c0-.46-.26-1.45,0-1.39,0,0-.23-.13-.14-.32l.16,0-.38-1.1c0-.89.64.07.54-1.21-.11-.47-.59-1.31-.68-1.12s0,.5-.21.53l-.12-.43c-.47,0-1-.31-1.2.79l.36.71-.2.26-.08-.62c-.18.38,0,.58.19.82a.49.49,0,0,0-.22.34l.51.68c-.17.11-.39-.29-.44.21.24.32.37-.37.56.18-.18.38-.36.29-.14.69-.11.07-.2,0-.27-.17.18.36.16,1,.42,1.14-.22.4.19,1.25-.25,1.25a2.36,2.36,0,0,1,.46,1c-.59-.57.09,1.28-.48,1.17.52.42.37,1.64.72,2.44,0,0-.13-.13-.11-.2a3,3,0,0,1-.18.91c.4,0,.56.73.83,1.1-.32.6-.49-.3-.84-.09.32-.06.4,1,.65.74-.2.45-.09.38-.39.63.49,0,.11.39.44.73-.2.64-.45.2-.25.87C235.21,103.76,235,103.16,235,103.16Zm1.81,16.26h0l0-.34Zm.06,1.37c0-.17,0-.38,0-.6.09-.05.2,0,.2.14C237,120.27,236.93,120.59,236.86,120.8Zm1.83-3c0,.22,0,.29-.06.32s0-.22,0-.38l0,0A.35.35,0,0,1,238.68,117.82Z"/><path class="cls-12" d="M238.3,117.44a.49.49,0,0,1,0-.09l-.06.13.09.07Z"/><path class="cls-12" d="M180.39,213.84l0,0-.06,0Z"/><polygon class="cls-12" points="236.27 139.74 236.34 139.74 236.28 139.62 236.27 139.74"/><path class="cls-12" d="M176.18,220.22a.19.19,0,0,0-.11.06S176.13,220.26,176.18,220.22Z"/><path class="cls-12" d="M174.92,223.28c-.09.13-.17.27-.25.41C174.78,223.51,174.87,223.38,174.92,223.28Z"/><path class="cls-12" d="M174,225.64a.34.34,0,0,0,.1.08h0Z"/><path class="cls-12" d="M198.69,194.65l.09-.05C199,194.45,198.84,194.54,198.69,194.65Z"/><path class="cls-12" d="M188.94,201.85a2.8,2.8,0,0,1,.2-.36C189,201.62,188.84,201.73,188.94,201.85Z"/><polygon class="cls-12" points="211.52 190.43 211.52 190.44 211.6 190.42 211.52 190.43"/><path class="cls-12" d="M189.56,201.12a1.12,1.12,0,0,0-.42.38A1.72,1.72,0,0,0,189.56,201.12Z"/><path class="cls-12" d="M171.16,236.29l0,.12,0,0Z"/><path class="cls-12" d="M171.17,236.43v.14C171.19,236.51,171.19,236.46,171.17,236.43Z"/><path class="cls-12" d="M171.19,236.87v-.29C171.15,236.67,171.12,236.79,171.19,236.87Z"/><path class="cls-12" d="M172,233l-.09-.06A.16.16,0,0,0,172,233Z"/><path class="cls-12" d="M172.17,232c-.08.23-.35.55-.36.89l.07,0C171.77,232.78,172.29,232.29,172.17,232Z"/><path class="cls-12" d="M174.47,228.25l-.32.79c.15-.11.34-.26.26.12C175,228.22,174.11,229.3,174.47,228.25Z"/><path class="cls-12" d="M175.39,225.79c-.1.44.15,0,.2.09C175.59,225.58,175.59,225.5,175.39,225.79Z"/><path class="cls-12" d="M183.81,209l.18.19C184.16,208.94,183.91,209.18,183.81,209Z"/><polygon class="cls-12" points="185.06 205.38 184.72 205.54 184.79 205.82 185.06 205.38"/><polygon class="cls-12" points="187.86 205.06 187.78 205.19 188.11 204.71 187.86 205.06"/><path class="cls-12" d="M215.76,191.77l-.21-.26C215.35,191.63,215.41,192,215.76,191.77Z"/><path class="cls-12" d="M227,183.22a.73.73,0,0,0,.56-.58C227.33,182.89,227,183.07,227,183.22Z"/><polygon class="cls-12" points="238.6 143.53 238.69 143.81 238.64 143.28 238.6 143.53"/><path class="cls-13" d="M249,279a72.48,72.48,0,0,1-3.5,22.5,166.73,166.73,0,0,1-153-1A63.26,63.26,0,0,1,89,279c.61-38.62,38.66-78.47,80-80a68.5,68.5,0,0,1,30,6C228.23,217.59,248.81,248.24,249,279Z"/><path class="cls-14" d="M202,210c-3.7-1-14.11-3.76-26,0-8.54,2.7-16.34,8.28-16,9,.22.47,4-.77,4-1s-7.93,1.22-17,3c-9.41,1.85-10.92,2.38-12,4-2.36,3.55.72,7.18-2,11-2.47,3.46-6.83,3-7,5-.16,1.8,3.39,4.07,7,5,6.66,1.71,10-2.06,21-2,3.83,0,5.95.49,7,2,1.66,2.39-.53,5.7,1,7,1.85,1.57,6-2.45,8-1,1.8,1.33,1.1,6.83-2,10a11.3,11.3,0,0,1-8,3c-8.84-.21-10.44-10-19-11-5.31-.6-11,2.47-14,7-.41.63-4.3,6.58-2,11,3.44,6.61,16.29,1.23,22,8,6.41,7.61-1.15,24.7,0,25,.82.21,2.24-9.19,8-11a8.21,8.21,0,0,1,8,2c3.78,4-1.74,9.87,2,17,.31.58,2.83,6.35,6.5,6.5,1.3.05,1.54-.64,4-1,2.92-.43,3.48.41,6,0,.95-.15,1.3-.58,5-2A38.27,38.27,0,0,0,192,314c4.8-3.17,4.42-13.56,2-21-.59-1.83-2.27-7-7-10-6-3.82-12.66-1.43-13-3s5.31-5.57,11-5c3.15.32,4.52,1.87,7,1,2.13-.75,4.07-2.94,4-5-.05-1.57-1.22-1.87-2-4a9.25,9.25,0,0,1,0-6c1.63-4.65,7.93-7.54,10-6,2.6,1.94-3,9.7,1,16,.95,1.47,2.76,3.4,4,3,2.77-.89-1-12.25,4-16,2-1.51,4.8-1.27,8-1,5.77.49,7,2.92,10,2,4.33-1.31,5.87-7.45,6-8a15.14,15.14,0,0,0,0-6C235.72,239.12,226,216.65,202,210Z"/><line x1="168.99" y1="191.5" x2="168.99" y2="206.5"/><path class="cls-5" d="M169.14,191.5c.24,1.25.4,2.5.6,3.75s.33,2.5.45,3.75a13.62,13.62,0,0,1,.3,3.75,9.92,9.92,0,0,1-.44,1.88,7.28,7.28,0,0,1-.91,1.88h-.3a7.28,7.28,0,0,1-.91-1.87,9.92,9.92,0,0,1-.44-1.87,13.62,13.62,0,0,1,.3-3.75q.19-1.87.45-3.75c.2-1.25.36-2.5.6-3.75Z"/><path class="cls-5" d="M110,220c-1.67.07-6.44,16.07.5,27.5,7.35,12.1,26.43,16.77,48,12A89.55,89.55,0,0,1,143,257c-8.58-2.17-17-4.3-23-10C109.12,236.68,111.7,219.93,110,220Z"/><path class="cls-5" d="M187,293c.05.64,51.17,6.85,62.54-16.65,5.86-12.11-.6-28.44-2.54-28.35s1.61,15-6,27C227.13,296.82,186.94,292.43,187,293Z"/><circle class="cls-15" cx="164.8" cy="161.5" r="159"/><path class="cls-16" d="M233,75.08l1.52-22.58c-21.1-1.75-43.83-2.87-68-3-22.66-.12-44,.65-64,2l.78,23.35c-11.12,2-17.78,4.44-17.78,7.15,0,6.35,36.71,11.5,82,11.5s82-5.15,82-11.5C249.49,79.4,243.33,77,233,75.08Z"/><circle class="cls-17" cx="207.99" cy="74" r="2.5"/><circle class="cls-17" cx="215.99" cy="74" r="2.5"/><ellipse class="cls-18" cx="167.99" cy="54.5" rx="63.5" ry="2"/><path class="cls-18" d="M103.49,77.5a4.75,4.75,0,0,0-1,4c3,11.9,69,6.27,69,5,0-.62-15.41,2.65-37-3C119.64,79.62,107.36,73,103.49,77.5Z"/><path class="cls-19" d="M326,161.5C344.52,209.25,275.15,323,164.49,323S-15.54,209.25,3,161.5C31.37,88.36,297.61,88.36,326,161.5Z"/><path class="cls-2" d="M265.49,265.5"/></g></g></svg>