<svg xmlns="http://www.w3.org/2000/svg" viewBox="0 0 323 323"><defs><style>.cls-1{fill:#d1b6e1;}.cls-2{fill:#ad94bf;}.cls-3{fill:#beedff;}.cls-12,.cls-13,.cls-18,.cls-4{fill:none;}.cls-12,.cls-14,.cls-5{stroke:#000;}.cls-12,.cls-13,.cls-14,.cls-18,.cls-5,.cls-9{stroke-miterlimit:10;}.cls-14,.cls-6{fill:#fff;}.cls-7{fill:#6eb1ca;}.cls-8{fill:#d3789f;}.cls-9{fill:#ff0038;stroke-width:3px;}.cls-18,.cls-9{stroke:#fff;}.cls-10{fill:#a2d8ec;}.cls-11{fill:#497484;}.cls-13{stroke:#beedff;}.cls-15{fill:#fbffb9;}.cls-16{fill:#9ee5e0;}.cls-17{fill:#c5efeb;}.cls-18{stroke-width:5px;}.cls-19{fill:#8bccc6;}</style></defs><title>Asset 15</title><g id="Layer_2" data-name="Layer 2"><g id="Inpatient_Care" data-name="Inpatient Care"><circle class="cls-1" cx="162.5" cy="160.5" r="159"/><path class="cls-2" d="M254.19,219.5l-1,.28A131.18,131.18,0,0,1,248,202.16c-1.19-5.67-3-17.44-3.17-18.41a92.66,92.66,0,0,1-1.24-10.17c-.1-1.88-.1-3.35-.06-4.6.81,2,1.8,3.33,2.64,3.32a5.39,5.39,0,0,1,1.86-.16c1.17.2,1.64.91,1.94.72.6-.39-1.33-3.53-.38-4.52.58-.62,1.64.24,2.42-.35,1.18-.89.42-4-.09-6.17-.59-2.47-1.34-4.08-.68-4.65s1.81-.2,1.84-.45a.11.11,0,0,0,0-.08,9.37,9.37,0,0,1-.88-2.2c-.91-2.13-1.37-3.19-1.32-3.71.11-1.26.94-1.68.66-2.41s-1.43-.65-2.12-1.14c-2.35-1.68,1.27-10,.87-10.21,0,0-.07,0-.13.06a59.83,59.83,0,0,0,.18-27.19,36.92,36.92,0,0,0,5.56.42c13.89,0,25.14-7.59,25.14-17s-11.26-17-25.14-17a34.44,34.44,0,0,0-13.27,2.56,85.89,85.89,0,0,0-17.3-7.29c-1.58-1.24-3.23-2.43-4.93-3.57-.65-.56-1.33-1.1-2-1.64,3.35-3.76,4.18-11.61.8-15.9-5.36-6.78-17.49.18-36-4a61.36,61.36,0,0,1-22-10,17.39,17.39,0,0,0-5.2-2.71,14.34,14.34,0,0,0-2.36-.54l.6-5.64a39.68,39.68,0,0,0-26,4.79l3.31,5.9-.31.21c-6.92,4.87-4.78,9-12,14-4.71,3.27-6.65,2.24-11,6-1.33,1.15-5.41,4.68-7,10a19.8,19.8,0,0,0-.57,8c-.54.31-1.08.62-1.61.94-5.85-2.32-11.73-1.9-13.28-1.9-13.89,0-25.14,7.18-25.14,16s11.26,16,25.14,16a39.31,39.31,0,0,0,4.45-.26A53.44,53.44,0,0,0,87,123a49,49,0,0,0,2.86,18.41c.14,1.52,0,2.85-.84,3.39s-1.85.3-2.19,1.07.52,1.17.6,2.43c0,.52-.47,1.56-1.47,3.66a9.25,9.25,0,0,1-1,2.17.11.11,0,0,0,0,.08c0,.25,1.35.05,1.86.51s-.16,2.17-.84,4.62c-.58,2.1-1.46,5.23-.29,6.16.78.62,1.88-.2,2.46.44.93,1-1.14,4.1-.53,4.51.29.2.8-.49,2-.65a5.59,5.59,0,0,1,1.89.22c1.51.08,3.59-4,4.4-8.47.09-.5.16-1,.21-1.52.07.86.14,1.78.21,2.82.46,6.3.84,12.65.84,12.65s.33,10.25.19,12.18c-.54,7.44-2.08,13.79-5.87,24.28-.86,2.39-1.81,5-2.84,7.66l-.45-.12-26,57c9.73,8.32,48.24,39.29,106,39a157.66,157.66,0,0,0,38.8-5c3.78-.9,7.6-2,11.41-3.22,1.77-.58,3.6-1.24,3.6-1.24a162.89,162.89,0,0,0,40-21,164.94,164.94,0,0,0,17-14l-.13-.2.31-.3Z"/><path class="cls-3" d="M273,275c-4.06-6.43-7.38-12.25-10-17.18-4.51-8.36-16.47-30.48-20.93-51.66-1.19-5.67-3-17.44-3.17-18.41a92.66,92.66,0,0,1-1.24-10.17c-.1-1.88-.1-3.35-.06-4.6.81,2,1.8,3.33,2.64,3.32a5.39,5.39,0,0,1,1.86-.16c1.17.2,1.64.91,1.94.72.6-.39-1.33-3.53-.38-4.52.58-.62,1.64.24,2.42-.35,1.18-.89.42-4-.09-6.17-.59-2.47-1.34-4.08-.68-4.65s1.81-.2,1.84-.45a.11.11,0,0,0,0-.08,9.37,9.37,0,0,1-.88-2.2c-.91-2.13-1.37-3.19-1.32-3.71.11-1.26.94-1.68.66-2.41s-1.43-.65-2.12-1.14c-2.35-1.68,1.27-10,.87-10.21,0,0-.07,0-.13.06a59.83,59.83,0,0,0,.18-27.19,36.92,36.92,0,0,0,5.56.42c13.89,0,25.14-7.59,25.14-17s-11.26-17-25.14-17a34.44,34.44,0,0,0-13.27,2.56,85.89,85.89,0,0,0-17.3-7.29c-1.58-1.24-3.23-2.43-4.93-3.57-11.5-9.9-30.06-16.34-51-16.34-21.58,0-40.62,6.82-52,17.22A89.86,89.86,0,0,0,93,81.41c-5.85-2.32-11.73-1.9-13.28-1.9-13.89,0-25.14,7.18-25.14,16s11.26,16,25.14,16a39.31,39.31,0,0,0,4.45-.26A53.44,53.44,0,0,0,81,127a49,49,0,0,0,2.86,18.41c.14,1.52,0,2.85-.84,3.39s-1.85.3-2.19,1.07.52,1.17.6,2.43c0,.52-.47,1.56-1.47,3.66a9.25,9.25,0,0,1-1,2.17.11.11,0,0,0,0,.08c0,.25,1.35.05,1.86.51s-.16,2.17-.84,4.62c-.58,2.1-1.46,5.23-.29,6.16.78.62,1.88-.2,2.46.44.93,1-1.14,4.1-.53,4.51.29.2.8-.49,2-.65a5.59,5.59,0,0,1,1.89.22c1.51.08,3.59-4,4.4-8.47.09-.5.16-1,.21-1.52.07.86.14,1.78.21,2.82.46,6.3.84,12.65.84,12.65s.33,10.25.19,12.18c-.54,7.44-2.08,13.79-5.87,24.28-3.16,8.76-7.36,19.63-12.81,32L64,285a174.82,174.82,0,0,0,66,31s41.21,8.82,82.4-4.76c1.77-.58,3.6-1.24,3.6-1.24a162.89,162.89,0,0,0,40-21A164.94,164.94,0,0,0,273,275Z"/><path class="cls-4" d="M339.76,254"/><circle class="cls-5" cx="118.68" cy="128.04" r="6.03"/><circle class="cls-6" cx="120.95" cy="130.51" r="2.26" transform="translate(-49.05 77.96) rotate(-30)"/><circle class="cls-5" cx="204.7" cy="128.51" r="6.03" transform="translate(-9.7 16.93) rotate(-4.63)"/><circle class="cls-6" cx="202.64" cy="131.14" r="2.26" transform="translate(-2.68 258.04) rotate(-64.63)"/><path class="cls-7" d="M106.23,120.51c-.25-.27.93-2.17,2.76-3.45,2.23-1.55,4.95-1.85,5.09-1.49.07.18-.5.46-3.71,2.49S106.39,120.68,106.23,120.51Z"/><path class="cls-7" d="M215.16,121.18c.24-.28-1-2.14-2.87-3.36-2.28-1.48-5-1.69-5.14-1.32-.06.18.51.44,3.79,2.37S215,121.35,215.16,121.18Z"/><path class="cls-7" d="M87.33,97.63c-.86,3.88-1.3,5.83-1.39,6.62-.36,3.09-.12,4.44-1.16,5.48-.79.79-2,1-5.06.84a35.82,35.82,0,0,1-11.3-2.12,23.48,23.48,0,0,1-8-4.27c-1.9-1.63-4.18-3.59-4.1-6.2s2.24-4.24,3.47-5.21c3.29-2.59,6.64-3,12.4-3.68,14.12-1.69,16.21-2,17.08-.53C89.81,89.51,89,89.91,87.33,97.63Z"/><path class="cls-7" d="M241.37,100.68c1,3.84,1.55,5.77,1.67,6.56.49,3.08.31,4.43,1.39,5.42.83.76,2,.95,5.09.62a35.82,35.82,0,0,0,11.2-2.6,23.48,23.48,0,0,0,7.85-4.61c1.83-1.71,4-3.76,3.83-6.37s-2.42-4.14-3.69-5.06c-3.39-2.45-6.76-2.7-12.54-3.14-14.18-1.08-16.28-1.27-17.09.2C238.54,92.68,239.32,93,241.37,100.68Z"/><ellipse class="cls-8" cx="167.44" cy="168.85" rx="7.94" ry="8.82" transform="translate(-8.87 328.41) rotate(-87.39)"/><rect class="cls-9" x="150.01" y="154.95" width="6" height="48.24" rx="3" ry="3" transform="translate(119.02 -54) rotate(32.21)"/><path class="cls-10" d="M197.81,140.1c0-8.43-16.17-15.26-36.12-15.26s-36.12,6.83-36.12,15.26c0,4.93,5.53,9.31,14.12,12.1-3.37,4.44-4.13,9.95-1.45,14,3.62,5.49,12.15,6.25,19,1.7a17.89,17.89,0,0,0,5.3-5.36,17.31,17.31,0,0,0,7.74,6.37c7.59,3.26,15.84,1,18.44-5,1.74-4.06.48-8.79-2.84-12.45C193.22,148.63,197.81,144.59,197.81,140.1Z"/><ellipse class="cls-11" cx="164.57" cy="139.56" rx="16.87" ry="10.72"/><ellipse class="cls-10" cx="169.88" cy="135.06" rx="9.37" ry="4.29"/><ellipse class="cls-6" cx="169.54" cy="135.06" rx="8.75" ry="3.18"/><path class="cls-12" d="M49.05,253.29"/><line class="cls-13" x1="217.9" y1="295.14" x2="265.56" y2="285.48"/><path class="cls-14" d="M284,216.31"/><path class="cls-15" d="M82.19,223.5l85,23,81-23,25,51c-8.52,8.14-48.63,44.69-111,45-57.76.29-96.27-30.68-106-39Z"/><rect class="cls-6" x="141.31" y="187.48" width="5" height="12.19" transform="translate(125.33 -46.86) rotate(32.21)"/><path class="cls-16" d="M125.19,42.5c-6.92,4.87-4.78,9-12,14-4.71,3.27-6.65,2.24-11,6-1.33,1.15-5.41,4.68-7,10-2.79,9.33,2.55,22.54,12,25a17.56,17.56,0,0,0,14-3c3.72-2.75,3.15-5,6-6,5.36-1.87,9.5,5.37,16,4,3.37-.71,3.24-2.87,7-5,8.11-4.61,14.3,3.16,23,0,10.74-3.9,9.9-14.61,20-17,8.35-2,13.3,4.32,18,1,4.33-3.06,5.76-12.24,2-17-5.36-6.78-17.49.18-36-4a61.36,61.36,0,0,1-22-10,17.39,17.39,0,0,0-5.2-2.71c-1.94-.62-4.65-1.1-9.8-.29S130,39.09,125.19,42.5Z"/><path class="cls-17" d="M109.19,77.5c-2.53-2.1-8.43-1-10,2-2,3.84,2.7,11.59,9,13a10.86,10.86,0,0,0,10-3c1.39-1.48,2.77-4,2-5-1.1-1.43-5.33,1.82-8,0C109.87,82.92,111.46,79.39,109.19,77.5Z"/><circle class="cls-18" cx="161.5" cy="161.5" r="159"/><path class="cls-17" d="M180.19,68.5c-2-2-5.74-1.53-8,0-2.7,1.83-1.59,4.14-4,6-3.7,2.85-8.86-.66-11,2a4.62,4.62,0,0,0,0,5c1.64,2.55,5.93,2.3,11,2,2.83-.17,4.25-.25,6-1,.6-.26,5.92-2.65,7-8C181.4,73.44,182,70.34,180.19,68.5Z"/><path class="cls-19" d="M127.19,50.5c.49.24-.74,4.19-2,7-.8,1.79-1,1.82-2,4a27.67,27.67,0,0,0-2,6c-.47,2.52-.71,3.78,0,5,.4.69,1,1.13,1,2s-.58,2-1,2c-1-.08-2.21-6.81-1-13C121.66,55.92,126.53,50.18,127.19,50.5Z"/><path class="cls-19" d="M150,46.36c-.34.43,2.47,3.47,4.82,5.46,1.73,1.47,2,1.34,3.53,2.75a19.38,19.38,0,0,1,3.89,4.93c1.17,2.16.9,2.78,2,4,1.33,1.46,3.48,2.51,4,2,.89-.86-2.71-6.45-6.33-10.41C156.7,49.42,150.38,45.83,150,46.36Z"/><path class="cls-19" d="M138.95,51.36c-.38.36,1.9,2.26,3.86,3.45,1.44.87,1.76.74,3,1.6a9.9,9.9,0,0,1,3.05,3.17c.83,1.46.5,1.95,1.39,2.71,1.07.92,3,1.42,3.52,1,.95-.75-1.75-4.44-4.66-6.93C144.92,52.79,139.42,50.91,138.95,51.36Z"/><path class="cls-17" d="M207.19,55.5c-1.6-.39-3.72,0-4,1s2,1.69,4,5c1.1,1.79,1.27,3,2,3s1.81-1.58,2-3A5.67,5.67,0,0,0,207.19,55.5Z"/><path class="cls-19" d="M148.23,31.6l-.76,7.16-21.34,4.66-3.94-7a39.68,39.68,0,0,1,26-4.79Z"/><ellipse class="cls-17" cx="135.51" cy="34.55" rx="10.5" ry="2.04" transform="translate(-4.04 25.53) rotate(-10.61)"/></g></g></svg>