<svg xmlns="http://www.w3.org/2000/svg" viewBox="0 0 885.42 370.76"><defs><style>.cls-1,.cls-14,.cls-17,.cls-18,.cls-5{fill:none;}.cls-1,.cls-16,.cls-7{stroke:#000;}.cls-1,.cls-13,.cls-14,.cls-16,.cls-17,.cls-18,.cls-20,.cls-3,.cls-4,.cls-7{stroke-miterlimit:10;}.cls-2{fill:#beedff;}.cls-11,.cls-3,.cls-4{fill:#497484;}.cls-3,.cls-4{stroke:#a2d9ea;}.cls-3{stroke-width:2px;}.cls-6{fill:#a2d8ec;}.cls-12,.cls-13,.cls-16,.cls-20,.cls-8{fill:#fff;}.cls-9{fill:#6eb1ca;}.cls-10{fill:#d3789f;}.cls-12,.cls-13,.cls-17{stroke:#beedff;}.cls-12{stroke-linecap:round;stroke-linejoin:round;}.cls-14{stroke:red;}.cls-15{fill:red;}.cls-18,.cls-20{stroke:#565656;stroke-width:5px;}.cls-19{fill:#568796;}.cls-21{fill:#5f707a;}</style></defs><title>Asset 24</title><g id="Layer_2" data-name="Layer 2"><g id="Bear"><path class="cls-1" d="M305.92,111" transform="translate(-45.94 -5.38)"/><path class="cls-2" d="M64.11,229.33a81.52,81.52,0,0,1,5.17-16.93,77.7,77.7,0,0,1,4.91-9.48c.57-.7,1.18-1.46,1.82-2.29,1.47-1.88,4.41-5.74,11.17-16.17,4.56-7,9.14-14.1,13.51-21.8,5-8.77,14.82-26,18.53-40.34,1.15-4.47,3-13.77,3.19-14.53a73.75,73.75,0,0,0,1.35-8c.15-1.49.2-2.66.22-3.65-.72,1.55-1.55,2.59-2.22,2.54a4.29,4.29,0,0,0-1.48-.19c-.93.11-1.34.66-1.57.5-.47-.33,1.18-2.76.47-3.59-.44-.51-1.31.13-1.91-.37-.9-.75-.19-3.23.29-4.9.56-1.94,1.21-3.19.71-3.67s-1.43-.22-1.45-.42a.09.09,0,0,1,0-.06,7.47,7.47,0,0,0,.78-1.72,10.1,10.1,0,0,0,1.19-2.9c0-1-.69-1.37-.44-1.94s1.16-.47,1.73-.83c1.93-1.25-.65-8-.32-8.16,0,0,.06,0,.1.05a47.65,47.65,0,0,1,.84-21.64,29.4,29.4,0,0,1-4.44.13c-11-.5-19.73-7-19.39-14.41s9.57-13.09,20.62-12.58A27.43,27.43,0,0,1,128,24.44a68.4,68.4,0,0,1,14-5.17q2-1.4,4-2.66c9.51-7.46,24.51-11.9,41.19-11.14,17.17.78,32.07,6.9,40.76,15.59a71.57,71.57,0,0,1,14.3,7.42,26.8,26.8,0,0,1,10.63-1c11,.5,19.74,6.62,19.42,13.67S262.84,53.46,251.79,53a31.3,31.3,0,0,1-3.53-.37,42.56,42.56,0,0,1,2,12.6,39,39,0,0,1-2.94,14.54c-.17,1.21-.09,2.27.54,2.73s1.46.3,1.7.93-.46.91-.56,1.91a10,10,0,0,0,1,3,7.37,7.37,0,0,0,.69,1.76.09.09,0,0,1,0,.06c0,.2-1.07,0-1.5.34s0,1.73.5,3.71c.39,1.69,1,4.21,0,4.91-.64.47-1.49-.23-2,.26-.78.79.75,3.3.26,3.61-.24.15-.62-.42-1.56-.59a4.45,4.45,0,0,0-1.51.11c-1.2,0-2.71-3.3-3.19-6.9-.05-.4-.09-.81-.11-1.21-.08.68-.17,1.41-.27,2.24-.6,5-1.13,10-1.13,10s-.64,8.14-.6,9.68c.41,15.19,12.82,45.49,12.82,45.49,8.09,19.77,12.23,29.6,20,41.06l.91,1.33A48.25,48.25,0,0,1,287,224.08c1.42,4.11,1.82,11.79,2.62,27.13,1,18.61,1.75,35.16-.91,56.19-2.78,21.93-4.35,33.14-13.06,44.61a63.47,63.47,0,0,1-4.47,5.3c8.05,3.94,16.61,9.59,15.64,13.65-1.47,6.12-23.81,5.33-35.93,4.9-13.74-.49-33.91-1.2-35.73-8.57-.71-2.86,1.54-6,4.09-8.5a83.38,83.38,0,0,0-12.07-6.05c-24.75-10-62.18-11.89-85,3.84-.56.38-1.12.79-1.68,1.2,1.81,2.47,3.1,5.28,2.29,7.69-2.41,7.17-21.89,6.08-35.16,5.33-11.71-.66-33.29-1.87-34.15-8.1-.54-3.91,7.27-8.47,15-11.67-2.36-3.62-5.16-9.63-7.94-20.42-4.73-18.31-4.85-32.66-5-47.09-.16-14,.18-17,.1-21.14,0-1-.54-2.17-.15-3.6a7.4,7.4,0,0,1,3.27-4C63.11,251.72,61.53,242.71,64.11,229.33Z" transform="translate(-45.94 -5.38)"/><path class="cls-2" d="M78.68,231.42c1.87,1.15,10.59,6.5,17.81,3.22,6.86-3.12,8.64-12.34,9.51-17.14,3-16.53-4.25-22.87-11.19-51.42-2.44-10-3.63-17.83-8.34-34.74-4.19-15.06-6.4-20.21-11.69-22.71-7.19-3.39-17.76-.81-22.85,5.45-4.12,5.07-3.48,11.14-1.75,23.75,3.12,22.79,4.68,34.19,6.23,40.74C67,223.23,75.08,229.21,78.68,231.42Z" transform="translate(-45.94 -5.38)"/><ellipse class="cls-3" cx="69.43" cy="138.12" rx="11.32" ry="16.83" transform="translate(-71.58 10.84) rotate(-11.26)"/><polygon class="cls-4" points="29.14 107.41 31.64 110.61 29.37 113.97 25.47 112.85 25.33 108.8 29.14 107.41"/><polygon class="cls-4" points="22.83 107.41 21.93 111.37 17.89 111.75 16.29 108.02 19.34 105.34 22.83 107.41"/><polygon class="cls-4" points="13.39 108.9 15.17 112.55 12.25 115.37 8.67 113.46 9.37 109.46 13.39 108.9"/><path class="cls-5" d="M40.71,135.36" transform="translate(-45.94 -5.38)"/><path class="cls-2" d="M264.78,179.48c-2.09-.65-11.86-3.7-18.05,1.26-5.88,4.71-5.34,14.09-5,19,1.19,16.75,9.74,21.12,23.49,47.09,4.83,9.13,7.91,16.39,16.62,31.62,7.77,13.57,11.17,18,16.92,19.14,7.8,1.52,17.42-3.58,20.81-10.9,2.74-5.93.63-11.65-4.14-23.45-8.63-21.33-12.94-32-16.06-38C278.1,184.55,268.8,180.74,264.78,179.48Z" transform="translate(-45.94 -5.38)"/><ellipse class="cls-6" cx="171.5" cy="244.47" rx="54.71" ry="63.27" transform="translate(-126.48 399.26) rotate(-87.39)"/><circle class="cls-7" cx="220.19" cy="64.65" r="4.8" transform="translate(99.63 276.28) rotate(-87.39)"/><circle class="cls-8" cx="218.3" cy="66.53" r="1.8" transform="translate(-1.34 209.16) rotate(-57.39)"/><circle class="cls-7" cx="151.74" cy="61.89" r="4.8" transform="translate(25.27 199.23) rotate(-82.76)"/><circle class="cls-8" cx="153.28" cy="64.06" r="1.8" transform="translate(-58.79 58.9) rotate(-22.76)"/><path class="cls-9" d="M230.37,59.11c.21-.21-.66-1.76-2.07-2.84-1.71-1.32-3.87-1.65-4-1.37s.38.38,2.86,2.12S230.24,59.24,230.37,59.11Z" transform="translate(-45.94 -5.38)"/><path class="cls-9" d="M143.69,55.68c-.18-.23.87-1.67,2.4-2.57,1.86-1.09,4-1.16,4.14-.86,0,.15-.43.33-3.1,1.75S143.8,55.82,143.69,55.68Z" transform="translate(-45.94 -5.38)"/><path class="cls-9" d="M246.24,41.59c.55,3.12.82,4.68.87,5.32.18,2.47-.07,3.53.72,4.4.6.66,1.52.89,4,.85a28.52,28.52,0,0,0,9.07-1.28,18.7,18.7,0,0,0,6.55-3.11c1.57-1.23,3.45-2.7,3.49-4.78s-1.63-3.45-2.57-4.27c-2.52-2.18-5.17-2.62-9.73-3.38-11.17-1.86-12.83-2.15-13.57-1C244.56,35,245.15,35.38,246.24,41.59Z" transform="translate(-45.94 -5.38)"/><path class="cls-9" d="M123.58,38.43c-1,3-1.44,4.53-1.57,5.16-.51,2.43-.41,3.51-1.31,4.26-.69.57-1.63.68-4.07.31a28.52,28.52,0,0,1-8.82-2.48,18.7,18.7,0,0,1-6.08-4c-1.39-1.43-3.06-3.14-2.82-5.21s2.07-3.2,3.12-3.89c2.79-1.82,5.48-1.9,10.09-2,11.32-.35,13-.42,13.59.78C126.12,32.16,125.49,32.42,123.58,38.43Z" transform="translate(-45.94 -5.38)"/><ellipse class="cls-10" cx="178.99" cy="95.81" rx="7.94" ry="8.82" transform="translate(29.18 264.85) rotate(-87.39)"/><path class="cls-6" d="M156.8,71.37c.31-6.71,13.42-11.56,29.29-10.83S214.58,67.28,214.27,74c-.18,3.92-4.74,7.21-11.67,9.12,2.52,3.65,2.92,8.06.64,11.2-3.08,4.24-9.89,4.53-15.21.66a14.25,14.25,0,0,1-4-4.46,13.79,13.79,0,0,1-6.39,4.78c-6.16,2.32-12.64.22-14.49-4.68-1.24-3.29-.06-7,2.71-9.8C160.14,78.32,156.64,74.94,156.8,71.37Z" transform="translate(-45.94 -5.38)"/><ellipse class="cls-11" cx="183.26" cy="72.14" rx="8.54" ry="13.44" transform="translate(56.9 246.54) rotate(-87.39)"/><ellipse class="cls-6" cx="179.21" cy="68.37" rx="3.42" ry="7.46" transform="translate(56.79 238.89) rotate(-87.39)"/><ellipse class="cls-8" cx="179.48" cy="68.38" rx="2.54" ry="6.97" transform="translate(57.04 239.17) rotate(-87.39)"/><path class="cls-1" d="M271,166.82" transform="translate(-45.94 -5.38)"/><path class="cls-12" d="M63.69,232.6a217.1,217.1,0,0,1-8.42-25.83c-4.15-16.11-5.53-29.23-7-44.11-1-10-1.52-18.3-1.8-24l46.41-6.27,6,30.77c2.09-2.55,11.61-13.95,14.34-13.73,1,.08.71.24,10,5.44,1.1.61,13.22,7.36,24.58,12.91,15.31,7.48,15,5.84,17.24,7.94,10.36,9.62,2.38,29.95-3.38,58.44-10.15,50.18,3.93,70-11,80.47-6.9,4.82-10.5,1-43.06.23C69.2,314,60,319.13,52.93,311.29c-8.51-9.47-4.61-26.29.29-47.4A175.51,175.51,0,0,1,63.69,232.6Z" transform="translate(-45.94 -5.38)"/><path class="cls-13" d="M136.62,187.54l-6.81,29.22c-5.11,4.68-14.07,6.14-22.43,3.71-7.3-2.12-13.11-6.92-15.23-12.49L99,178.75Z" transform="translate(-45.94 -5.38)"/><polyline class="cls-14" points="62.4 196.86 59.58 193.83 61.31 188.16 67.1 186.82 71.14 191.17 69.4 196.84 65.73 197.69 63.81 203.94 67.85 208.28 73.64 206.95 75.37 201.28 73.2 198.95"/><rect class="cls-15" x="110.73" y="195.18" width="1.12" height="4.59" transform="matrix(0.96, 0.29, -0.29, 0.96, 16.82, -29.33)"/><rect class="cls-15" x="110.73" y="195.18" width="1.12" height="4.59" transform="translate(-156.08 240.62) rotate(-72.96)"/><rect class="cls-15" x="114.85" y="205.81" width="1.12" height="4.59" transform="translate(20.12 -30.07) rotate(17.04)"/><rect class="cls-15" x="114.85" y="205.81" width="1.12" height="4.59" transform="translate(-163.32 252.07) rotate(-72.96)"/><path class="cls-16" d="M0,308.3" transform="translate(-45.94 -5.38)"/><path class="cls-16" d="M307.49,134.79" transform="translate(-45.94 -5.38)"/><line class="cls-17" x1="89.25" y1="188.6" x2="51.67" y2="179.18"/><path class="cls-18" d="M97,228.81a331.87,331.87,0,0,1,14.08-76.27" transform="translate(-45.94 -5.38)"/><polygon class="cls-12" points="117.23 169.03 66.17 136.04 42.09 158.22 117.23 169.03"/><circle class="cls-19" cx="96.02" cy="239.6" r="12.59" transform="translate(-193.65 319.21) rotate(-87.39)"/><circle class="cls-8" cx="96.02" cy="239.6" r="6.47" transform="translate(-193.65 319.21) rotate(-87.39)"/><path class="cls-16" d="M85.46,128.87" transform="translate(-45.94 -5.38)"/><path class="cls-12" d="M191.57,179.3l1.35-1.12a23.12,23.12,0,0,1,8.24-3.95c2.75-.75,8.29-3.43,20.67-12.12l33.16,0q1.42,2.75,2.77,5.45l1.49.28c34.58,6.81,59,85.64,64.42,104.1l-24.53,10.57c2.42,17.2,3.18,30.8-4.72,38.32-8.63,8.21-19.25-.48-54.8-.65-30.08-.15-34.27,5.85-43.13.36-8.46-5.24-7.76-12.63-14.19-81.69C181.82,233.71,177.82,190.81,191.57,179.3Z" transform="translate(-45.94 -5.38)"/><path class="cls-18" d="M251.38,214.51q-1.35-10.27-3.19-21.09c-2.11-12.3-4.54-24-7.17-35" transform="translate(-45.94 -5.38)"/><path class="cls-20" d="M269.66,254.68a66.16,66.16,0,0,0-5-24c-1.83-4.4-7.3-17.56-12.71-17-6.23.66-8.66,19.19-8.88,20.88a59.63,59.63,0,0,0,1.74,23.63" transform="translate(-45.94 -5.38)"/><ellipse class="cls-11" cx="243.84" cy="255.42" rx="4.01" ry="6.01" transform="translate(-90.36 46.08) rotate(-11.05)"/><ellipse class="cls-11" cx="268.92" cy="253.37" rx="6.01" ry="4.01" transform="translate(-42.39 505.06) rotate(-87.39)"/><polygon class="cls-13" points="148.43 171.04 200.01 138.87 223.73 161.43 148.43 171.04"/><rect class="cls-13" x="207.73" y="267.89" width="44.6" height="9.92" transform="translate(39.63 593.8) rotate(-115.99)"/><rect class="cls-13" x="94.87" y="263.54" width="44.6" height="9.92" transform="translate(-220.89 241.07) rotate(-62.11)"/></g><g id="Text"><path class="cls-8" d="M390,127.5V81.75h-18.9V127.5h-15.9V22.5h15.9V66.75H390V22.5h15.9v105Z" transform="translate(-45.94 -5.38)"/><path class="cls-8" d="M457.66,127.5l-3.45-23.85H436.67l-3.45,23.85h-15.9l18.15-105h20.25l18.15,105Zm-18.9-38.25h13.35L445.67,45h-.45Z" transform="translate(-45.94 -5.38)"/><path class="cls-8" d="M532.06,46.2v9.45l-15.3.75V47.85c0-8.4-3.15-12.15-9-12.15s-9,3.75-9,10.65v57.3c0,6.9,3.15,10.65,9,10.65s9-3.75,9-12.15V90.45l15.3.75v12.6c0,15.9-9.15,25.2-24.75,25.2-15.45,0-24.45-9.3-24.45-25.2V46.2c0-15.9,9-25.2,24.45-25.2C522.92,21,532.06,30.3,532.06,46.2Z" transform="translate(-45.94 -5.38)"/><path class="cls-8" d="M599.41,127.5H582.47l-15.6-45.9L560,95.1v32.4h-15.9V22.5H560V66.3h.3l22-43.8H599l-21.6,41.7Z" transform="translate(-45.94 -5.38)"/><path class="cls-21" d="M655.81,46.2v7.2l-15.3.75v-6.3c0-8.4-3.15-12.15-9.3-12.15s-9.3,3.75-9.3,10.65v57.3c0,6.9,3,10.65,9.15,10.65s9.15-3.75,9.15-12.15v-18h-9V69.45h24.6V103.8c0,15.9-9.15,25.2-25,25.2S606,119.7,606,103.8V46.2c0-15.9,9-25.2,24.75-25.2S655.81,30.3,655.81,46.2Z" transform="translate(-45.94 -5.38)"/><path class="cls-21" d="M696.47,37.5v90h-15.9v-90H663.62v-15h49.8v15Z" transform="translate(-45.94 -5.38)"/><path class="cls-21" d="M733.06,56.1h-8.25l5.4-16.8h-5.4V22.5h16.8V37.8Z" transform="translate(-45.94 -5.38)"/><path class="cls-21" d="M800.56,44.55v2.7l-15.3,1.5v-3.9c0-6-2.85-9.15-8.1-9.15s-8.1,3.15-8.1,9.15V46.2c0,6.15,2.7,11.4,13.35,20.4,14.55,12.3,19.95,21,19.95,33.6v5.25c0,15-8.85,23.55-24.6,23.55s-24.6-8.55-24.6-23.55v-7l15.3-1.5v7.5q0,9.9,9,9.9t9-9.9v-3.45c0-6.6-3.15-11.85-13.8-20.85-14.55-12.3-19.5-21-19.5-33.3V44.55c0-15,8.55-23.55,23.7-23.55S800.56,29.55,800.56,44.55Z" transform="translate(-45.94 -5.38)"/><path class="cls-8" d="M390,250.5V204.75h-18.9V250.5h-15.9v-105h15.9v44.25H390V145.5h15.9v105Z" transform="translate(-45.94 -5.38)"/><path class="cls-8" d="M438.92,160.2v29.7h23.25v14.7H438.92v31.2h28.8v14.7H423v-105h44.7v14.7Z" transform="translate(-45.94 -5.38)"/><path class="cls-8" d="M515.86,250.5l-3.45-23.85H494.86l-3.45,23.85h-15.9l18.15-105h20.25l18.15,105ZM497,212.25h13.35L503.86,168h-.45Z" transform="translate(-45.94 -5.38)"/><path class="cls-8" d="M585.91,235.5v15H543.46v-105h15.9v90Z" transform="translate(-45.94 -5.38)"/><path class="cls-8" d="M613.81,160.5v90h-15.9v-90H581v-15h49.8v15Z" transform="translate(-45.94 -5.38)"/><path class="cls-8" d="M675.61,250.5V204.75h-18.9V250.5h-15.9v-105h15.9v44.25h18.9V145.5h15.9v105Z" transform="translate(-45.94 -5.38)"/><path class="cls-21" d="M734.41,160.5v90h-15.9v-90H701.56v-15h49.8v15Z" transform="translate(-45.94 -5.38)"/><path class="cls-21" d="M777.31,160.2v29.7h23.25v14.7H777.31v31.2h28.8v14.7h-44.7v-105h44.7v14.7Z" transform="translate(-45.94 -5.38)"/><path class="cls-21" d="M867.16,169.2v9.45l-15.3.75v-8.55c0-8.4-3.15-12.15-9-12.15s-9,3.75-9,10.65v57.3c0,6.9,3.15,10.65,9,10.65s9-3.75,9-12.15v-11.7l15.3.75v12.6c0,15.9-9.15,25.2-24.75,25.2C827,252,818,242.7,818,226.8V169.2c0-15.9,9-25.2,24.45-25.2C858,144,867.16,153.3,867.16,169.2Z" transform="translate(-45.94 -5.38)"/><path class="cls-21" d="M915.46,250.5V204.75h-18.9V250.5h-15.9v-105h15.9v44.25h18.9V145.5h15.9v105Z" transform="translate(-45.94 -5.38)"/><path class="cls-21" d="M390,373.5V327.75h-18.9V373.5h-15.9v-105h15.9v44.25H390V268.5h15.9v105Z" transform="translate(-45.94 -5.38)"/><path class="cls-21" d="M457.66,373.5l-3.45-23.85H436.67l-3.45,23.85h-15.9l18.15-105h20.25l18.15,105Zm-18.9-38.25h13.35L445.67,291h-.45Z" transform="translate(-45.94 -5.38)"/><path class="cls-21" d="M532.06,292.2v9.45l-15.3.75v-8.55c0-8.4-3.15-12.15-9-12.15s-9,3.75-9,10.65v57.3c0,6.9,3.15,10.65,9,10.65s9-3.75,9-12.15v-11.7l15.3.75v12.6c0,15.9-9.15,25.2-24.75,25.2-15.45,0-24.45-9.3-24.45-25.2V292.2c0-15.9,9-25.2,24.45-25.2C522.92,267,532.06,276.3,532.06,292.2Z" transform="translate(-45.94 -5.38)"/><path class="cls-21" d="M599.41,373.5H582.47l-15.6-45.9L560,341.1v32.4h-15.9v-105H560v43.8h.3l22-43.8H599l-21.6,41.7Z" transform="translate(-45.94 -5.38)"/><path class="cls-21" d="M643.51,373.5l-3.45-23.85H622.51l-3.45,23.85h-15.9l18.15-105h20.25l18.15,105Zm-18.9-38.25H638L631.51,291h-.45Z" transform="translate(-45.94 -5.38)"/><path class="cls-21" d="M691.67,283.5v90h-15.9v-90H658.82v-15h49.8v15Z" transform="translate(-45.94 -5.38)"/><path class="cls-21" d="M753.46,373.5V327.75h-18.9V373.5h-15.9v-105h15.9v44.25h18.9V268.5h15.9v105Z" transform="translate(-45.94 -5.38)"/><path class="cls-21" d="M836.11,293.55v54.9c0,16.5-9.75,26.55-25.65,26.55s-25.65-10-25.65-26.55v-54.9c0-16.5,9.75-26.55,25.65-26.55S836.11,277.05,836.11,293.55Zm-35.4.15v54.6c0,7.8,3.45,12,9.75,12s9.75-4.2,9.75-12V293.7c0-7.8-3.45-12-9.75-12S800.71,285.9,800.71,293.7Z" transform="translate(-45.94 -5.38)"/><path class="cls-21" d="M887.71,373.5l-20.85-69.6h-.3v69.6h-15v-105h17.7L888,331.05h.3V268.5h15v105Z" transform="translate(-45.94 -5.38)"/></g></g></svg>