<svg xmlns="http://www.w3.org/2000/svg" viewBox="0 0 323 323"><defs><style>.cls-1,.cls-15{fill:none;}.cls-1,.cls-2,.cls-6{stroke:#000;}.cls-1,.cls-15,.cls-2,.cls-6{stroke-miterlimit:10;}.cls-13,.cls-14,.cls-2,.cls-7{fill:#fff;}.cls-3{fill:#fff399;}.cls-4{fill:#e8d877;}.cls-5{fill:#beedff;}.cls-8{fill:#6eb1ca;}.cls-9{fill:#d3789f;}.cls-10{fill:#a2d8ec;}.cls-11{fill:#497484;}.cls-12{fill:#f7aa97;}.cls-13{font-size:40.18px;}.cls-13,.cls-14{font-family:SingerMears, Singer Mears;}.cls-14{font-size:40.17px;}.cls-15{stroke:#fff;stroke-width:5px;}</style></defs><title>Asset 6</title><g id="Layer_2" data-name="Layer 2"><g id="Pediatrics"><path class="cls-1" d="M61.5,103.32"/><path class="cls-2" d="M58.16,133"/><circle class="cls-3" cx="162.5" cy="160.5" r="159"/><text></text><path class="cls-4" d="M280.86,96.8c0-9.37-11.26-17-25.14-17a34.44,34.44,0,0,0-13.27,2.56,85.89,85.89,0,0,0-17.3-7.29c-1.58-1.24-3.23-2.43-4.93-3.57-10.07-8.67-25.57-14.69-43.35-16,1.72-1.71,3.79-3.34,5.69-2.85,1.22.31,2,1.42,2.63,1s.52-2-.27-3.15c-1.06-1.48-3-1.41-3-2,0-.75,3.69-1.05,3.67-1.59,0-.37-1.77-1-3.55-.65-2.72.51-4.38,3-6,5.7a15.27,15.27,0,0,0-1-8,13.21,13.21,0,0,0-12-8c-6.59.11-11.55,5.9-11,7,.38.76,3.28-.94,8,0,2.08.41,4.88,1,6,3,1.69,3.06-2,6.6-1.29,9.31-19.71.87-36.93,7.44-47.53,17.12a89.86,89.86,0,0,0-18.36,8.49C93,78.59,87.08,79,85.53,79c-13.89,0-25.14,7.18-25.14,16s11.26,16,25.14,16a39.31,39.31,0,0,0,4.45-.26A53.44,53.44,0,0,0,86.8,126.5a49,49,0,0,0,2.86,18.41c.14,1.52,0,2.85-.84,3.39s-1.85.3-2.19,1.07.52,1.17.6,2.43c0,.52-.47,1.56-1.47,3.66a9.25,9.25,0,0,1-1,2.17.11.11,0,0,0,0,.08c0,.25,1.35.05,1.86.51s-.16,2.17-.84,4.62c-.58,2.1-1.46,5.23-.29,6.16.78.62,1.88-.2,2.46.44.93,1-1.14,4.1-.53,4.51.29.2.8-.49,2-.65a5.59,5.59,0,0,1,1.89.22c1.51.08,3.59-4,4.4-8.47.09-.5.16-1,.21-1.52.07.86.14,1.78.21,2.82.46,6.3.84,12.65.84,12.65s.33,10.25.19,12.18c-.54,7.44-2.08,13.79-5.87,24.28-3.16,8.76-7.36,19.63-12.81,32l-8.66,37a174.82,174.82,0,0,0,66,31s41.21,8.82,82.4-4.76c1.77-.58,3.6-1.24,3.6-1.24A245.41,245.41,0,0,0,262,285c6.23-4.67,11.88-9.38,17-14a136.62,136.62,0,0,1-10.22-13.68,167.64,167.64,0,0,1-20.93-51.66c-1.19-5.67-3-17.44-3.17-18.41a92.66,92.66,0,0,1-1.24-10.17c-.1-1.88-.1-3.35-.06-4.6.81,2,1.8,3.33,2.64,3.32a5.39,5.39,0,0,1,1.86-.16c1.17.2,1.64.91,1.94.72.6-.39-1.33-3.53-.38-4.52.58-.62,1.64.24,2.42-.35,1.18-.89.42-4-.09-6.17-.59-2.47-1.34-4.08-.68-4.65s1.81-.2,1.84-.45a.11.11,0,0,0,0-.08A9.37,9.37,0,0,1,252,158c-.91-2.13-1.37-3.19-1.32-3.71.11-1.26.94-1.68.66-2.41s-1.43-.65-2.12-1.14c-2.35-1.68,1.27-10,.87-10.21,0,0-.07,0-.13.06a59.83,59.83,0,0,0,.18-27.19,36.92,36.92,0,0,0,5.56.42C269.6,113.76,280.86,106.17,280.86,96.8Z"/><path class="cls-5" d="M272.81,276.5c-4.06-6.43-7.38-12.25-10-17.18-4.51-8.36-16.47-30.48-20.93-51.66-1.19-5.67-3-17.44-3.17-18.41a92.66,92.66,0,0,1-1.24-10.17c-.1-1.88-.1-3.35-.06-4.6.81,2,1.8,3.33,2.64,3.32a5.39,5.39,0,0,1,1.86-.16c1.17.2,1.64.91,1.94.72.6-.39-1.33-3.53-.38-4.52.58-.62,1.64.24,2.42-.35,1.18-.89.42-4-.09-6.17-.59-2.47-1.34-4.08-.68-4.65s1.81-.2,1.84-.45a.11.11,0,0,0,0-.08A9.37,9.37,0,0,1,246,160c-.91-2.13-1.37-3.19-1.32-3.71.11-1.26.94-1.68.66-2.41s-1.43-.65-2.12-1.14c-2.35-1.68,1.27-10,.87-10.21,0,0-.07,0-.13.06a59.83,59.83,0,0,0,.18-27.19,36.92,36.92,0,0,0,5.56.42c13.89,0,25.14-7.59,25.14-17s-11.26-17-25.14-17a34.44,34.44,0,0,0-13.27,2.56,85.89,85.89,0,0,0-17.3-7.29c-1.58-1.24-3.23-2.43-4.93-3.57-11.5-9.9-30.06-16.34-51-16.34-21.58,0-40.62,6.82-52,17.22a89.86,89.86,0,0,0-18.36,8.49C87,80.59,81.08,81,79.53,81c-13.89,0-25.14,7.18-25.14,16s11.26,16,25.14,16a39.31,39.31,0,0,0,4.45-.26A53.44,53.44,0,0,0,80.8,128.5a49,49,0,0,0,2.86,18.41c.14,1.52,0,2.85-.84,3.39s-1.85.3-2.19,1.07.52,1.17.6,2.43c0,.52-.47,1.56-1.47,3.66a9.25,9.25,0,0,1-1,2.17.11.11,0,0,0,0,.08c0,.25,1.35.05,1.86.51s-.16,2.17-.84,4.62c-.58,2.1-1.46,5.23-.29,6.16.78.62,1.88-.2,2.46.44.93,1-1.14,4.1-.53,4.51.29.2.8-.49,2-.65a5.59,5.59,0,0,1,1.89.22c1.51.08,3.59-4,4.4-8.47.09-.5.16-1,.21-1.52.07.86.14,1.78.21,2.82.46,6.3.84,12.65.84,12.65s.33,10.25.19,12.18c-.54,7.44-2.08,13.79-5.87,24.28-3.16,8.76-7.36,19.63-12.81,32l-8.66,37a174.82,174.82,0,0,0,66,31s41.21,8.82,82.4-4.76c1.77-.58,3.6-1.24,3.6-1.24a162.89,162.89,0,0,0,40-21A164.94,164.94,0,0,0,272.81,276.5Z"/><circle class="cls-6" cx="118.49" cy="129.54" r="6.03"/><circle class="cls-7" cx="120.76" cy="132.01" r="2.26" transform="translate(-49.82 78.06) rotate(-30)"/><circle class="cls-6" cx="204.52" cy="130.01" r="6.03" transform="translate(-9.82 16.92) rotate(-4.63)"/><circle class="cls-7" cx="202.46" cy="132.64" r="2.26" transform="translate(-4.14 258.73) rotate(-64.63)"/><path class="cls-8" d="M106,122c-.25-.27.93-2.17,2.76-3.45,2.23-1.55,4.95-1.85,5.09-1.49.07.18-.5.46-3.71,2.49S106.2,122.18,106,122Z"/><path class="cls-8" d="M215,122.68c.24-.28-1-2.14-2.87-3.36-2.28-1.48-5-1.69-5.14-1.32-.06.18.51.44,3.79,2.37S214.82,122.85,215,122.68Z"/><path class="cls-8" d="M87.14,99.13c-.86,3.88-1.3,5.83-1.39,6.62-.36,3.09-.12,4.44-1.16,5.48-.79.79-2,1-5.06.84a35.82,35.82,0,0,1-11.3-2.12,23.48,23.48,0,0,1-8-4.27c-1.9-1.63-4.18-3.59-4.1-6.2s2.24-4.24,3.47-5.21c3.29-2.59,6.64-3,12.4-3.68,14.12-1.69,16.21-2,17.08-.53C89.62,91,88.86,91.41,87.14,99.13Z"/><path class="cls-8" d="M241.18,102.18c1,3.84,1.55,5.77,1.67,6.56.49,3.08.31,4.43,1.39,5.42.83.76,2,.95,5.09.62a35.82,35.82,0,0,0,11.2-2.6,23.48,23.48,0,0,0,7.85-4.61c1.83-1.71,4-3.76,3.83-6.37s-2.42-4.14-3.69-5.06c-3.39-2.45-6.76-2.7-12.54-3.14-14.18-1.08-16.28-1.27-17.09.2C238.36,94.18,239.13,94.54,241.18,102.18Z"/><ellipse class="cls-9" cx="167.25" cy="170.35" rx="7.94" ry="8.82" transform="translate(-10.55 329.66) rotate(-87.39)"/><path class="cls-10" d="M197.62,141.6c0-8.43-16.17-15.26-36.12-15.26s-36.12,6.83-36.12,15.26c0,4.93,5.53,9.31,14.12,12.1-3.37,4.44-4.13,9.95-1.45,14,3.62,5.49,12.15,6.25,19,1.7a17.89,17.89,0,0,0,5.3-5.36,17.31,17.31,0,0,0,7.74,6.37c7.59,3.26,15.84,1,18.44-5,1.74-4.06.48-8.79-2.84-12.45C193,150.13,197.62,146.09,197.62,141.6Z"/><ellipse class="cls-11" cx="164.39" cy="141.06" rx="16.87" ry="10.72"/><ellipse class="cls-10" cx="169.69" cy="136.56" rx="9.37" ry="4.29"/><ellipse class="cls-7" cx="169.35" cy="136.56" rx="8.75" ry="3.18"/><path class="cls-1" d="M48.87,254.79"/><path class="cls-2" d="M283.82,217.81"/><path class="cls-5" d="M167,59c3.88-2.29,3.74-8.9,2-13a13.21,13.21,0,0,0-12-8c-6.59.11-11.55,5.9-11,7,.38.76,3.28-.94,8,0,2.08.41,4.88,1,6,3,1.84,3.32-2.73,7.23-1,10C160.29,60.07,164.44,60.51,167,59Z"/><path class="cls-5" d="M167.25,60.84c-.56-.36.93-3.82,2.61-6.57s3.36-5.4,6.16-5.92c1.78-.33,3.54.28,3.55.65,0,.53-3.67.83-3.67,1.59,0,.55,2,.48,3,2,.79,1.1.86,2.77.27,3.15s-1.41-.73-2.63-1C172.69,53.65,168.12,61.39,167.25,60.84Z"/><path class="cls-12" d="M88,208c-.19,4.16-1.43,45.06,30.5,69.5,29.64,22.7,75.11,21.43,102-5,25.38-25,22.07-60.38,21.51-65.43-5.82,5.51-34.11,31.13-78,30.93C121.61,237.81,94.15,213.68,88,208Z"/><text class="cls-13" transform="matrix(0.97, 0.49, -0.44, 0.89, 116.14, 263.62)">A</text><text class="cls-13" transform="matrix(1.09, -0.03, 0.04, 1, 155.94, 280.52)">B</text><text class="cls-14" transform="matrix(0.87, -0.48, 0.49, 0.87, 194, 277.29)">C</text><circle class="cls-15" cx="161.5" cy="161.5" r="159"/></g></g></svg>