<svg xmlns="http://www.w3.org/2000/svg" viewBox="0 0 323 323"><defs><style>.cls-1{fill:#fc9d9a;}.cls-2{fill:#d88888;}.cls-3{fill:#beedff;}.cls-10,.cls-11,.cls-4{stroke:#000;}.cls-10,.cls-11,.cls-13,.cls-15,.cls-17,.cls-4{stroke-miterlimit:10;}.cls-11,.cls-5{fill:#fff;}.cls-6{fill:#6eb1ca;}.cls-7{fill:#d3789f;}.cls-8{fill:#a2d8ec;}.cls-9{fill:#497484;}.cls-10,.cls-13,.cls-15,.cls-17{fill:none;}.cls-12{fill:#a593e0;}.cls-13,.cls-15,.cls-17{stroke:#fff;}.cls-13{stroke-width:5px;}.cls-14{fill:#baaef4;}.cls-15{stroke-width:1px;}.cls-16{fill:#b8abf4;}.cls-17{stroke-width:0.5px;}.cls-18{fill:#b9afe8;}</style></defs><title>Asset 35</title><g id="Layer_2" data-name="Layer 2"><g id="Women_s_Health" data-name="Women&apos;s Health"><circle class="cls-1" cx="162.5" cy="160.5" r="159"/><path class="cls-2" d="M247,202.16c-1.19-5.67-3-17.44-3.17-18.41a92.66,92.66,0,0,1-1.24-10.17c-.1-1.88-.1-3.35-.06-4.6.81,2,1.8,3.33,2.64,3.32a5.39,5.39,0,0,1,1.86-.16c1.17.2,1.64.91,1.94.72.6-.39-1.33-3.53-.38-4.52.58-.62,1.64.24,2.42-.35,1.18-.89.42-4-.09-6.17-.59-2.47-1.34-4.08-.68-4.65s1.81-.2,1.84-.45a.11.11,0,0,0,0-.08,9.37,9.37,0,0,1-.88-2.2c-.91-2.13-1.37-3.19-1.32-3.71.11-1.26.94-1.68.66-2.41s-1.43-.65-2.12-1.14c-2.35-1.68,1.27-10,.87-10.21,0,0-.07,0-.13.06a59.83,59.83,0,0,0,.18-27.19,36.92,36.92,0,0,0,5.56.42c13.89,0,25.14-7.59,25.14-17s-11.26-17-25.14-17a34.44,34.44,0,0,0-13.27,2.56,85.89,85.89,0,0,0-17.3-7.29c-1.58-1.24-3.23-2.43-4.93-3.57-11.5-9.9-30.06-16.34-51-16.34-16.78,0-32,4.14-43.32,10.86-1.51-4.91-4.43-9.35-8.2-10-5.35-.88-12.93,5.88-12.61,12.61a8.61,8.61,0,0,0,.39,2.09,6.33,6.33,0,0,0-3.33-.88c-3.58.12-6.77,3.68-7.21,7.16-3.84-5.12-13.76-5.92-17.72-1.85A8.36,8.36,0,0,0,74.24,77c-8.65,2.53-14.67,8.1-14.67,14.57,0,8.85,11.26,16,25.14,16a39.31,39.31,0,0,0,4.45-.26A53.44,53.44,0,0,0,86,123a49,49,0,0,0,2.86,18.41c.14,1.52,0,2.85-.84,3.39s-1.85.3-2.19,1.07.52,1.17.6,2.43c0,.52-.47,1.56-1.47,3.66a9.25,9.25,0,0,1-1,2.17.11.11,0,0,0,0,.08c0,.25,1.35.05,1.86.51s-.16,2.17-.84,4.62c-.58,2.1-1.46,5.23-.29,6.16.78.62,1.88-.2,2.46.44.93,1-1.14,4.1-.53,4.51.29.2.8-.49,2-.65a5.59,5.59,0,0,1,1.89.22c1.51.08,3.59-4,4.4-8.47.09-.5.16-1,.21-1.52.07.86.14,1.78.21,2.82.46,6.3.84,12.65.84,12.65s.33,10.25.19,12.18c-.54,7.44-2.08,13.79-5.87,24.28-3.16,8.76-7.36,19.63-12.81,32L69,281a174.82,174.82,0,0,0,66,31s41.21,8.82,82.4-4.76c1.77-.58,3.6-1.24,3.6-1.24a162.89,162.89,0,0,0,40-21,164.94,164.94,0,0,0,17-14c-4.06-6.43-7.38-12.25-10-17.18C263.46,245.46,251.49,223.34,247,202.16Z"/><path class="cls-3" d="M273,275c-4.06-6.43-7.38-12.25-10-17.18-4.51-8.36-16.47-30.48-20.93-51.66-1.19-5.67-3-17.44-3.17-18.41a92.66,92.66,0,0,1-1.24-10.17c-.1-1.88-.1-3.35-.06-4.6.81,2,1.8,3.33,2.64,3.32a5.39,5.39,0,0,1,1.86-.16c1.17.2,1.64.91,1.94.72.6-.39-1.33-3.53-.38-4.52.58-.62,1.64.24,2.42-.35,1.18-.89.42-4-.09-6.17-.59-2.47-1.34-4.08-.68-4.65s1.81-.2,1.84-.45a.11.11,0,0,0,0-.08,9.37,9.37,0,0,1-.88-2.2c-.91-2.13-1.37-3.19-1.32-3.71.11-1.26.94-1.68.66-2.41s-1.43-.65-2.12-1.14c-2.35-1.68,1.27-10,.87-10.21,0,0-.07,0-.13.06a59.83,59.83,0,0,0,.18-27.19,36.92,36.92,0,0,0,5.56.42c13.89,0,25.14-7.59,25.14-17s-11.26-17-25.14-17a34.44,34.44,0,0,0-13.27,2.56,85.89,85.89,0,0,0-17.3-7.29c-1.58-1.24-3.23-2.43-4.93-3.57-11.5-9.9-30.06-16.34-51-16.34-21.58,0-40.62,6.82-52,17.22A89.86,89.86,0,0,0,93,81.41c-5.85-2.32-11.73-1.9-13.28-1.9-13.89,0-25.14,7.18-25.14,16s11.26,16,25.14,16a39.31,39.31,0,0,0,4.45-.26A53.44,53.44,0,0,0,81,127a49,49,0,0,0,2.86,18.41c.14,1.52,0,2.85-.84,3.39s-1.85.3-2.19,1.07.52,1.17.6,2.43c0,.52-.47,1.56-1.47,3.66a9.25,9.25,0,0,1-1,2.17.11.11,0,0,0,0,.08c0,.25,1.35.05,1.86.51s-.16,2.17-.84,4.62c-.58,2.1-1.46,5.23-.29,6.16.78.62,1.88-.2,2.46.44.93,1-1.14,4.1-.53,4.51.29.2.8-.49,2-.65a5.59,5.59,0,0,1,1.89.22c1.51.08,3.59-4,4.4-8.47.09-.5.16-1,.21-1.52.07.86.14,1.78.21,2.82.46,6.3.84,12.65.84,12.65s.33,10.25.19,12.18c-.54,7.44-2.08,13.79-5.87,24.28-3.16,8.76-7.36,19.63-12.81,32L64,285a174.82,174.82,0,0,0,66,31s41.21,8.82,82.4-4.76c1.77-.58,3.6-1.24,3.6-1.24a162.89,162.89,0,0,0,40-21A164.94,164.94,0,0,0,273,275Z"/><circle class="cls-4" cx="204.7" cy="128.51" r="6.03" transform="translate(-9.7 16.93) rotate(-4.63)"/><circle class="cls-5" cx="202.64" cy="131.14" r="2.26" transform="translate(-2.68 258.04) rotate(-64.63)"/><path class="cls-6" d="M106.23,120.51c-.25-.27.93-2.17,2.76-3.45,2.23-1.55,4.95-1.85,5.09-1.49.07.18-.5.46-3.71,2.49S106.39,120.68,106.23,120.51Z"/><path class="cls-6" d="M215.16,120.18c.24-.28-1-2.14-2.87-3.36-2.28-1.48-5-1.69-5.14-1.32-.06.18.51.44,3.79,2.37S215,120.35,215.16,120.18Z"/><path class="cls-6" d="M87.33,97.63c-.86,3.88-1.3,5.83-1.39,6.62-.36,3.09-.12,4.44-1.16,5.48-.79.79-2,1-5.06.84a35.82,35.82,0,0,1-11.3-2.12,23.48,23.48,0,0,1-8-4.27c-1.9-1.63-4.18-3.59-4.1-6.2s2.24-4.24,3.47-5.21c3.29-2.59,6.64-3,12.4-3.68,14.12-1.69,16.21-2,17.08-.53C89.81,89.51,89,89.91,87.33,97.63Z"/><path class="cls-6" d="M241.37,100.68c1,3.84,1.55,5.77,1.67,6.56.49,3.08.31,4.43,1.39,5.42.83.76,2,.95,5.09.62a35.82,35.82,0,0,0,11.2-2.6,23.48,23.48,0,0,0,7.85-4.61c1.83-1.71,4-3.76,3.83-6.37s-2.42-4.14-3.69-5.06c-3.39-2.45-6.76-2.7-12.54-3.14-14.18-1.08-16.28-1.27-17.09.2C238.54,92.68,239.32,93,241.37,100.68Z"/><ellipse class="cls-7" cx="167.44" cy="168.85" rx="7.94" ry="8.82" transform="translate(-8.87 328.41) rotate(-87.39)"/><path class="cls-8" d="M197.81,140.1c0-8.43-16.17-15.26-36.12-15.26s-36.12,6.83-36.12,15.26c0,4.93,5.53,9.31,14.12,12.1-3.37,4.44-4.13,9.95-1.45,14,3.62,5.49,12.15,6.25,19,1.7a17.89,17.89,0,0,0,5.3-5.36,17.31,17.31,0,0,0,7.74,6.37c7.59,3.26,15.84,1,18.44-5,1.74-4.06.48-8.79-2.84-12.45C193.22,148.63,197.81,144.59,197.81,140.1Z"/><ellipse class="cls-9" cx="164.57" cy="139.56" rx="16.87" ry="10.72"/><ellipse class="cls-8" cx="169.88" cy="135.06" rx="9.37" ry="4.29"/><ellipse class="cls-5" cx="169.54" cy="135.06" rx="8.75" ry="3.18"/><path class="cls-10" d="M49.05,253.29"/><path class="cls-11" d="M284,216.31"/><path class="cls-12" d="M82.19,223.5l85,23,81-23,25,51c-8.52,8.14-48.63,44.69-111,45-57.76.29-96.27-30.68-106-39Z"/><circle class="cls-13" cx="161.5" cy="161.5" r="159"/><circle class="cls-4" cx="118.68" cy="128.04" r="6.03"/><circle class="cls-5" cx="120.95" cy="130.51" r="2.26" transform="translate(-49.05 77.96) rotate(-30)"/><path d="M115.72,118a3.35,3.35,0,0,0-.76,3.55,4,4,0,0,0,1.11,1.35,6.39,6.39,0,0,0,1.62,1v.1a2.64,2.64,0,0,1-2.2-.31,3,3,0,0,1-1.28-1.91,3.65,3.65,0,0,1,.13-2.22,3.72,3.72,0,0,1,1.33-1.65Z"/><path d="M110.86,122a3.35,3.35,0,0,0,1.75,3.18,4,4,0,0,0,1.72.29,6.39,6.39,0,0,0,1.89-.3l.06.08a2.64,2.64,0,0,1-1.87,1.21,3,3,0,0,1-2.22-.6,3.65,3.65,0,0,1-1.36-1.76,3.73,3.73,0,0,1-.08-2.12Z"/><path d="M207.72,118a3.72,3.72,0,0,1,1.33,1.65,3.65,3.65,0,0,1,.13,2.22,3,3,0,0,1-1.28,1.91,2.64,2.64,0,0,1-2.2.31V124a6.39,6.39,0,0,0,1.62-1,4,4,0,0,0,1.11-1.35,3.35,3.35,0,0,0-.76-3.55Z"/><circle class="cls-4" cx="204.69" cy="128.04" r="6.03"/><circle class="cls-5" cx="202.43" cy="130.51" r="2.26" transform="translate(-11.81 240.56) rotate(-60)"/><path d="M207.72,118a3.72,3.72,0,0,1,1.33,1.65,3.65,3.65,0,0,1,.13,2.22,3,3,0,0,1-1.28,1.91,2.64,2.64,0,0,1-2.2.31V124a6.39,6.39,0,0,0,1.62-1,4,4,0,0,0,1.11-1.35,3.35,3.35,0,0,0-.76-3.55Z"/><path d="M212.62,122a3.73,3.73,0,0,1-.08,2.12,3.65,3.65,0,0,1-1.36,1.76,3,3,0,0,1-2.22.6,2.64,2.64,0,0,1-1.87-1.21l.06-.08a6.39,6.39,0,0,0,1.89.3,4,4,0,0,0,1.72-.29,3.35,3.35,0,0,0,1.75-3.18Z"/><path class="cls-12" d="M116.1,92.68c-5.37-5.46-4.25-8.27-9.76-12.72-.67-.54-1.35-1-2-1.49a9.53,9.53,0,0,0-.24-1.25c4.9,3.71,12.16,5.06,15,2.79,4.94-3.94.71-22.12-7.21-23.42-5.35-.88-12.93,5.88-12.61,12.61a8.61,8.61,0,0,0,.39,2.09,6.33,6.33,0,0,0-3.33-.88c-3.58.12-6.77,3.68-7.21,7.16-3.84-5.12-13.76-5.92-17.72-1.85C65.36,81.88,73,99.2,79.3,99.5c4.57.21,11.19-8.34,11.5-15.75a10,10,0,0,0,2.11,2.57c-.08.23-.16.45-.23.68-2.09,6.77.41,8.47-1,16-1.53,8.17-6,14.36-5,15,.69.43,2.58-2.48,5-2,1.74.34,2.06,2.1,3,2,1.79-.18,3-6.74,3-13,0-3.78-.5-3.73-1-12-.15-2.43-.2-4-.19-5.24,3,.12,5.9-2.16,7.18-4.93.67,1,1.5,2.32,2.7,4.35,4.2,7.14,3.78,7.36,5.87,10.52,3.46,5.22,8.16,10,9.74,9.11.84-.45.12-2.08,1.37-3.33,1.74-1.75,4.94-.39,5.26-1.13C129.11,101.24,121.94,98.61,116.1,92.68Z"/><path class="cls-14" d="M97.19,73.5c-1.75-.37-3.83.18-4,1s2.22,1.27,4,4c1,1.57,1,2.61,2,3a2.64,2.64,0,0,0,3-1C103.21,78.64,100.64,74.23,97.19,73.5Z"/><path class="cls-15" d="M200.85,274l-7.69-4.4-.06-12.27L204,251.11l10.77,6.26.06,12.1-8,5,.06,12.1,10.6,6.43,10.71-6.36-.06-12.44-7.86-4.57"/><polygon class="cls-16" points="198.57 260.19 198.6 266.48 204.07 269.61 209.51 266.43 209.48 260.13 204.01 257.01 198.57 260.19"/><circle class="cls-17" cx="203.95" cy="263.13" r="1.11" transform="translate(-1.24 0.97) rotate(-0.27)"/><line class="cls-17" x1="204.04" y1="264.23" x2="204.15" y2="287.25"/><polygon class="cls-16" points="223.13 283.81 223.06 277.51 217.57 274.41 212.15 277.62 212.22 283.92 217.7 287.01 223.13 283.81"/><circle class="cls-17" cx="217.73" cy="280.89" r="1.11" transform="translate(-2.88 2.26) rotate(-0.59)"/><line class="cls-17" x1="217.63" y1="279.79" x2="217.39" y2="256.75"/><path class="cls-18" d="M117.19,66.5c-.93-.78-2.46-1.48-3-1s.44,1.85,1,5c.35,2,.61,3.44,0,5-.76,1.93-2.25,2.45-2,3,.33.72,3.37.79,5-1a4.92,4.92,0,0,0,1-4C119.28,72.81,119.78,68.68,117.19,66.5Z"/></g></g></svg>